<svg width="269" height="30" viewBox="0 0 269 30" fill="none" xmlns="http://www.w3.org/2000/svg">
<g clip-path="url(#clip0_65_904)">
<path d="M41.8003 0C33.5151 0 26.8013 6.71588 26.8013 14.999C26.8013 23.2821 33.5172 29.998 41.8003 29.998C50.0834 29.998 56.7993 23.2821 56.7993 14.999C56.7993 6.71588 50.0854 0 41.8003 0ZM41.8003 24.7391C36.4212 24.7391 32.0601 20.3781 32.0601 14.999C32.0601 9.61988 36.4212 5.25887 41.8003 5.25887C47.1794 5.25887 51.5404 9.61988 51.5404 14.999C51.5404 20.3781 47.1794 24.7391 41.8003 24.7391Z" fill="#EDF4D9"/>
<path d="M258.053 24.7391C252.664 24.7391 248.297 20.3601 248.315 14.9669C248.331 9.76618 252.52 5.43924 257.719 5.26488C260.071 5.18672 262.246 5.94228 263.967 7.26101C264.364 7.56564 264.925 7.53157 265.278 7.17683L268.357 4.09847C265.669 1.55722 262.043 0 258.053 0C249.652 0 242.864 6.90627 243.058 15.3537C243.243 23.3563 249.802 29.8677 257.807 29.996C261.889 30.0621 265.607 28.4949 268.351 25.9055L265.272 22.8272C264.919 22.4744 264.362 22.4384 263.965 22.741C262.326 23.9956 260.276 24.7411 258.053 24.7411V24.7391Z" fill="#EDF4D9"/>
<path d="M23.9956 5.35902V0.0981445H9.55775C4.27884 0.0981445 0 4.37699 0 9.6559V29.8997H5.26087V19.5423H20.344V14.2815H5.26087V9.81823C5.26087 7.35314 7.259 5.35501 9.7241 5.35501H23.9976L23.9956 5.35902Z" fill="#EDF4D9"/>
<path d="M169.232 0.0981445V20.1315L152.433 0.0981445H148.493V29.8997H153.752V9.86633L170.581 29.8997H174.493V0.0981445H169.232Z" fill="#EDF4D9"/>
<path d="M139.627 0.0921631V16.7065C139.627 20.9833 136.159 24.4485 131.885 24.4485C127.61 24.4485 124.145 20.9833 124.145 16.7065V0.0921631H118.886V16.9069C118.886 21.1858 120.952 24.9816 124.145 27.3505C126.307 28.9578 128.985 29.9078 131.885 29.9078C134.785 29.9078 137.464 28.9578 139.627 27.3505C142.819 24.9816 144.885 21.1858 144.885 16.9069V0.0921631H139.627Z" fill="#EDF4D9"/>
<path d="M115.278 0.0981445H104.909H99.65H89.2786V5.35902H99.65V29.9017H104.909V5.35902H115.278V0.0981445Z" fill="#EDF4D9"/>
<path d="M79.9313 18.9712C82.208 18.1254 84.0839 16.4519 85.1881 14.3155C85.8816 12.9788 86.2724 11.4616 86.2724 9.8523C86.2724 8.24298 85.8816 6.72584 85.1881 5.38908C84.7292 4.50124 84.136 3.69358 83.4385 2.99213C81.6769 1.20443 79.2278 0.0981445 76.5182 0.0981445H60.4089V5.35701H76.5483V5.38908C79.0134 5.38908 81.0115 7.38721 81.0115 9.8523C81.0115 12.139 79.292 14.0209 77.0774 14.2835H65.6678C62.7638 14.2835 60.4089 16.6383 60.4089 19.5423V29.9017H65.6678V20.2057C65.6678 19.8409 65.9624 19.5463 66.3272 19.5463H73.3958C73.8868 19.5463 74.3397 19.8089 74.5862 20.2338L80.1678 29.9017H86.2403L79.9313 18.9732V18.9712Z" fill="#EDF4D9"/>
<path d="M233.306 18.9712C235.583 18.1254 237.459 16.4519 238.563 14.3155C239.256 12.9788 239.647 11.4616 239.647 9.8523C239.647 8.24298 239.256 6.72584 238.563 5.38908C238.104 4.50124 237.511 3.69358 236.813 2.99213C235.052 1.20443 232.603 0.0981445 229.893 0.0981445H213.784V5.35701H229.923V5.38908C232.388 5.38908 234.386 7.38721 234.386 9.8523C234.386 12.139 232.667 14.0209 230.452 14.2835H219.043C216.139 14.2835 213.784 16.6383 213.784 19.5423V29.9017H219.043V20.2057C219.043 19.8409 219.337 19.5463 219.702 19.5463H226.771C227.262 19.5463 227.714 19.8089 227.961 20.2338L233.543 29.9017H239.615L233.306 18.9732V18.9712Z" fill="#EDF4D9"/>
<path d="M184.686 29.9078H177.852L190.448 0.0921631H197.137L188.686 20.3601L184.686 29.9078ZM179.593 28.7514H183.916L187.618 19.9131L195.402 1.24655H191.213L179.595 28.7514H179.593Z" fill="#EDF4D9"/>
<path d="M204.685 16.3278L203.635 13.8386V13.8767C203.635 14.7285 203.577 15.5722 203.462 16.4019C203.184 18.4481 202.563 20.4162 201.631 22.238C201.41 22.6709 201.17 23.0958 200.911 23.5106L201.474 24.8534L202.781 27.9798C203.27 29.1483 204.412 29.9078 205.679 29.9078H210.423L204.685 16.3298V16.3278ZM202.226 23.6569C203.176 22.0195 203.875 20.2559 204.312 18.4121L208.679 28.7494H205.869C204.953 28.7494 204.126 28.2003 203.773 27.3546L202.226 23.6569Z" fill="#EDF4D9"/>
<path d="M199.787 6.29096C199.49 6.41922 199.348 6.75992 199.468 7.06055C200.192 8.87029 200.591 10.8424 200.591 12.9066C200.591 21.4844 193.718 28.4868 185.193 28.6993L184.688 29.9058C194.109 29.9639 201.791 22.3161 201.791 12.9066C201.791 10.688 201.364 8.56766 200.587 6.62164C200.46 6.30498 200.098 6.15467 199.787 6.29096Z" fill="#EDF4D9"/>
</g>
<defs>
<clipPath id="clip0_65_904">
<rect width="268.357" height="30" fill="white"/>
</clipPath>
</defs>
</svg>
