<?xml version="1.0" encoding="utf-8"?>
<!-- Generator: Adobe Illustrator 27.8.0, SVG Export Plug-In . SVG Version: 6.00 Build 0)  -->
<svg version="1.1" id="Layer_1" xmlns="http://www.w3.org/2000/svg" xmlns:xlink="http://www.w3.org/1999/xlink" x="0px" y="0px"
	 viewBox="0 0 756.3 200.6" style="enable-background:new 0 0 756.3 200.6;" xml:space="preserve">
<style type="text/css">
	.st0{fill:#72BF01;}
	.st1{fill:#081F24;}
	.st2{fill:#EDF4D9;}
</style>
<g>
	<g>
		<path class="st0" d="M162.2,200.3H46.4c-14.1,0-25.5-11.4-25.5-25.5V25.7c0-14.1,11.4-25.5,25.5-25.5h115.8
			c14.1,0,25.5,11.4,25.5,25.5v149.1C187.6,188.9,176.2,200.3,162.2,200.3z"/>
		<g>
			<path class="st1" d="M27.4,173.5V28.8H181v144.8c0,11.1-9,20-20,20H47.5C36.4,193.5,27.4,184.6,27.4,173.5z"/>
			<path class="st2" d="M150.6,166.6H59c-2,0-3.7-1.6-3.7-3.7l0,0c0-2,1.6-3.7,3.7-3.7h91.6c2,0,3.7,1.6,3.7,3.7l0,0
				C154.3,164.9,152.6,166.6,150.6,166.6z"/>
			<path class="st2" d="M120.2,148.6H59c-2,0-3.7-1.6-3.7-3.7l0,0c0-2,1.6-3.7,3.7-3.7h61.2c2,0,3.7,1.6,3.7,3.7l0,0
				C123.9,147,122.3,148.6,120.2,148.6z"/>
			<g>
				<g>
					<path class="st2" d="M41.3,131.4c-1.9,0-3.8-0.2-5.7-0.5c-1.7-0.3-3.3-0.7-4.9-1.2V27c0-9.2,7.5-16.8,16.8-16.8H161
						c9.2,0,16.8,7.5,16.8,16.8v37.6c-0.1,11.3-4.2,22.4-11.4,31.2c-7.3,8.8-17.4,14.8-28.5,17l-89.6,17.8
						C45.9,131.1,43.6,131.4,41.3,131.4L41.3,131.4z"/>
					<g>
						<path class="st1" d="M161,13.6c7.4,0,13.5,6,13.5,13.5v37.6c-0.1,10.6-3.9,20.9-10.7,29.1s-16.2,13.8-26.7,15.9l-89.6,17.8
							c-2.1,0.4-4.2,0.6-6.3,0.6c-1.7,0-3.4-0.1-5.1-0.4c-0.7-0.1-1.4-0.3-2.1-0.4V27c0-7.4,6-13.5,13.5-13.5H161 M161,7H47.5
							c-11.1,0-20,9-20,20v105c2.5,0.9,5,1.6,7.6,2.1c2,0.3,4.1,0.5,6.2,0.5c2.5,0,5.1-0.2,7.6-0.7l89.6-17.8
							c24.6-4.9,42.4-26.4,42.6-51.4V27.1C181,16,172.1,7,161,7L161,7z"/>
					</g>
				</g>
				<g>
					<path class="st1" d="M101.1,41.8H59c-2,0-3.7-1.6-3.7-3.7l0,0c0-2,1.6-3.7,3.7-3.7h42.1c2,0,3.7,1.6,3.7,3.7l0,0
						C104.8,40.1,103.1,41.8,101.1,41.8z"/>
				</g>
				<g>
					<path class="st1" d="M85.9,59.7H59c-2,0-3.7-1.6-3.7-3.7l0,0c0-2,1.6-3.7,3.7-3.7h26.9c2,0,3.7,1.6,3.7,3.7l0,0
						C89.6,58.1,88,59.7,85.9,59.7z"/>
				</g>
				<g>
					<path class="st2" d="M41.3,131.4c-1.9,0-3.8-0.2-5.7-0.5c-2.4-0.4-4.8-1-7-1.9c-4.3-1.7-8.2-4.1-11.5-7.3
						c-4.8-4.6-9-10.1-13-16.9c-0.7-1.3-0.8-2.7-0.3-4.1c0.5-1.3,1.6-2.3,2.9-2.7l28.8-9l0,0l51.2-16.4c0.5-0.1,0.9-0.2,1.4-0.2
						c2.1,0,4,1.4,4.5,3.5c5.1,19.4,22.7,32.9,42.8,32.9c10.7,0,20.6-3.8,28.3-10.2c-7,7.2-16.1,12.2-26,14.2l-89.6,17.8
						C45.9,131.1,43.6,131.4,41.3,131.4L41.3,131.4z"/>
					<path class="st1" d="M88.2,75.8c0.5,0,1.1,0.3,1.3,1c4.8,18.2,19.9,31.6,38.1,34.7l-80.1,16c-2.1,0.4-4.2,0.6-6.3,0.6
						c-1.7,0-3.4-0.1-5.1-0.4c-2.2-0.4-4.3-0.9-6.3-1.7c-3.9-1.5-7.4-3.7-10.4-6.6c-4.6-4.3-8.6-9.6-12.4-16.1
						c-0.3-0.5-0.2-0.9-0.1-1.2c0.1-0.3,0.3-0.6,0.9-0.8l21.7-6.7l6.7-2.1l0,0l1-0.3L87.9,76C88,75.8,88.1,75.8,88.2,75.8 M181,64.6
						h-4.6c0,22.6-18.3,41-41,41c-19,0-35-12.9-39.6-30.5c-0.9-3.6-4.2-5.9-7.7-5.9c-0.8,0-1.6,0.1-2.4,0.4L35.1,85.8l0,0l-7.6,2.4
						L5.8,94.9c-4.9,1.5-7.1,7.2-4.5,11.6c3.8,6.6,8.3,12.6,13.6,17.6c3.7,3.5,8,6.2,12.6,8c2.5,0.9,5,1.6,7.6,2.1
						c2,0.3,4.1,0.5,6.2,0.5c2.5,0,5.1-0.2,7.6-0.7l89.6-17.8C163,111.2,180.8,89.7,181,64.6L181,64.6z"/>
				</g>
				<path class="st1" d="M140.4,38.2l-3.3,1.2c-0.3,0.1-0.4,0.4-0.4,0.6c0,0.3,0.2,0.5,0.4,0.6l3.3,1.2l1.2,3.3
					c0.1,0.3,0.4,0.4,0.6,0.4c0.3,0,0.5-0.2,0.6-0.4l1.2-3.3l3.3-1.2c0.3-0.1,0.4-0.4,0.4-0.6c0-0.3-0.2-0.5-0.4-0.6l-3.3-1.2
					l-1.2-3.3c-0.1-0.3-0.4-0.4-0.6-0.4c-0.3,0-0.5,0.2-0.6,0.4L140.4,38.2z M118.9,48c-0.4,0.1-0.7,0.5-0.7,0.9s0.3,0.8,0.7,0.9
					l5,1.9l1.9,5c0.1,0.4,0.5,0.7,0.9,0.7s0.8-0.3,0.9-0.7l1.9-5l5-1.9c0.4-0.1,0.7-0.5,0.7-0.9s-0.3-0.8-0.7-0.9l-5-1.9l-1.9-5
					c-0.1-0.4-0.5-0.7-0.9-0.7s-0.8,0.3-0.9,0.7l-1.9,5L118.9,48z M138.1,57.7c-0.4,0.1-0.7,0.5-0.7,0.9s0.3,0.8,0.7,0.9l5,1.9
					l1.9,5c0.1,0.4,0.5,0.7,0.9,0.7s0.8-0.3,0.9-0.7l1.9-5l5-1.9c0.4-0.1,0.7-0.5,0.7-0.9s-0.3-0.8-0.7-0.9l-5-1.9l-1.9-5
					c-0.1-0.4-0.5-0.7-0.9-0.7s-0.8,0.3-0.9,0.7l-1.9,5L138.1,57.7z"/>
			</g>
		</g>
	</g>
	<g>
		<g>
			<path class="st2" d="M279.3,70.2c-1.6,1.4-4.3,2-8.1,2c-3.6,0-6.8-0.6-9.6-1.8c-2.8-1.2-5.2-2.6-7.1-4.1
				c-1.3,0.6-2.5,1.6-3.6,2.9s-1.6,2.8-1.6,4.7c0,2.3,1,4.3,3,6.1c2,1.7,4.7,3.1,8,4c3.4,0.9,7.2,1.4,11.4,1.4
				c8.6,0,15.2-1.8,19.7-5.5s6.8-8.4,6.8-14.3c0-5.4-1.7-9.8-5.1-13s-8.3-5.9-14.7-7.8l-5.8-1.8c-2.2-0.7-3.9-1.5-5-2.4
				s-1.7-2-1.7-3.4c0-1.7,0.8-3.2,2.5-4.2c1.7-1.1,4.2-1.6,7.5-1.6c3.2,0,6.1,0.4,8.8,1.2c2.7,0.8,4.8,1.8,6.4,2.9
				c1.1-0.8,2-1.8,2.8-3c0.7-1.2,1.1-2.5,1.1-4.1c0-2.2-0.9-4-2.7-5.5c-1.8-1.5-4.2-2.6-7.3-3.4c-3.1-0.8-6.7-1.2-10.6-1.2
				c-7.8,0-13.9,1.7-18.3,5.1s-6.6,8-6.6,13.8c0,3.8,0.8,6.9,2.4,9.3c1.6,2.4,3.8,4.4,6.7,6c2.9,1.5,6.2,2.9,10,4.2l5.6,1.8
				c2.5,0.8,4.4,1.7,5.7,2.8c1.3,1.1,1.9,2.5,1.9,4.2C281.7,67.2,280.9,68.8,279.3,70.2z"/>
			<path class="st2" d="M338.4,82.7c2-1.5,2.9-3.5,2.9-5.9c0-1.2-0.2-2.2-0.7-3.1s-1-1.7-1.5-2.3c-0.8,0.4-1.9,0.6-3.1,0.9
				c-1.2,0.2-2.4,0.4-3.4,0.4c-2.3,0-4.1-0.5-5.3-1.4c-1.3-0.9-1.9-2.3-1.9-4.3v-8.6v-2.6v-9.5h10.9c1.6,0,2.9-0.5,3.8-1.5
				s1.4-2.5,1.4-4.6c0-1.3-0.2-2.4-0.5-3.5c-0.4-1-0.7-1.9-1-2.4h-14.6V27c0-2.8-0.7-4.7-2-5.8c-1.3-1-3.5-1.6-6.5-1.6
				c-1.4,0-2.7,0.1-4,0.4c-1.3,0.2-2.2,0.5-2.9,0.7v35v2.6V68c0,6,1.6,10.3,4.9,13c3.2,2.7,7.8,4,13.7,4
				C333.2,85,336.5,84.2,338.4,82.7z"/>
			<path class="st2" d="M392.2,81c1.4-0.8,2.5-1.7,3.5-2.8c0.9-1.1,1.4-2.5,1.4-4.2V50.2c0-6.4-2.2-11.1-6.5-14.1
				s-10.1-4.6-17.4-4.6c-2.5,0-5.1,0.2-7.8,0.6c-2.7,0.4-5,1-7.1,1.8c-3.2,1.3-4.8,3.5-4.8,6.4c0,1.3,0.3,2.5,0.9,3.6
				c0.6,1.2,1.3,2,2.1,2.6c2-0.8,4.3-1.6,6.9-2.2c2.5-0.6,5.2-0.9,7.8-0.9c3.4,0,6.1,0.5,7.9,1.6c1.9,1,2.8,2.8,2.8,5.1v1.3
				L368,52.9c-5.8,0.6-10.2,2.1-13.1,4.7c-2.9,2.6-4.4,6.2-4.4,11c0,5.5,2.1,9.7,6.3,12.5c4.2,2.8,9.9,4.2,17,4.2
				c4,0,7.5-0.4,10.6-1.1C387.5,83.3,390.1,82.3,392.2,81z M381.9,71.9c-0.7,0.4-1.8,0.8-3.4,1.1c-1.6,0.3-3.2,0.5-4.8,0.5
				c-2.9,0-5.1-0.5-6.4-1.5s-2-2.4-2-4c0-1.7,0.7-2.9,2.1-3.8c1.4-0.8,3.3-1.3,5.7-1.5l8.8-0.8L381.9,71.9L381.9,71.9z"/>
			<path class="st2" d="M426.6,55.8v-9.5h10.9c1.6,0,2.9-0.5,3.8-1.5s1.4-2.5,1.4-4.6c0-1.3-0.2-2.4-0.5-3.5c-0.4-1-0.7-1.9-1-2.4
				h-14.6V27c0-2.8-0.7-4.7-2-5.8c-1.3-1-3.5-1.6-6.5-1.6c-1.4,0-2.7,0.1-4,0.4c-1.3,0.2-2.2,0.5-2.9,0.7v35v2.6V68
				c0,6,1.6,10.3,4.9,13c3.2,2.7,7.8,4,13.7,4c4.6,0,7.9-0.8,9.9-2.3s2.9-3.5,2.9-5.9c0-1.2-0.2-2.2-0.7-3.1s-1-1.7-1.5-2.3
				c-0.8,0.4-1.9,0.6-3.1,0.9c-1.2,0.2-2.4,0.4-3.4,0.4c-2.3,0-4.1-0.5-5.3-1.4c-1.3-0.9-1.9-2.3-1.9-4.3v-8.6L426.6,55.8
				L426.6,55.8z"/>
			<path class="st2" d="M489.2,84c2.9-0.7,5.2-1.7,6.8-3.1c1.6-1.4,2.5-3.1,2.5-5.2c0-1.3-0.3-2.4-1-3.6c-0.7-1.1-1.5-2-2.6-2.6
				c-1.6,0.9-3.7,1.8-6.3,2.6c-2.6,0.8-5.3,1.3-8.3,1.3c-3.6,0-6.8-0.8-9.4-2.5c-2.1-1.3-3.6-3.3-4.4-6.1l27.5-4.1
				c2.1-0.3,3.7-1,4.9-2.1c1.2-1.1,1.8-2.8,1.8-4.9c0-4.3-1-8.1-3-11.4c-2-3.3-4.8-5.9-8.4-7.8c-3.6-1.9-7.8-2.9-12.6-2.9
				c-3.3,0-6.4,0.5-9.5,1.6c-3,1-5.8,2.6-8.2,4.8c-2.4,2.1-4.3,4.8-5.8,8.1c-1.4,3.3-2.1,7.2-2.1,11.6c0,6.1,1.2,11.1,3.7,15.2
				c2.4,4.1,5.8,7.1,10.1,9.1c4.3,2,9.1,3,14.5,3C483,85,486.3,84.7,489.2,84z M468.8,46.3c2.1-2.1,4.7-3.2,7.9-3.2
				c3,0,5.3,0.8,6.8,2.5s2.4,3.5,2.5,5.4l-20.5,3.2C465.8,50.9,466.9,48.2,468.8,46.3z"/>
			<path class="st2" d="M577.7,33.4c-3.1-1.3-6.5-1.9-10.2-1.9c-4.3,0-7.9,0.6-10.8,1.9c-2,0.9-3.9,1.9-5.6,3.1
				c-1.8-1.5-3.8-2.6-6.1-3.4c-2.9-1-6.1-1.6-9.4-1.6c-3.6,0-7.1,0.5-10.5,1.5c-3.4,1-6.2,2.3-8.5,3.9c-1.4,0.9-2.5,1.9-3.2,3.1
				c-0.7,1.2-1.1,2.6-1.1,4.3v11.5v4.8v16.2c0,2.7,0.7,4.6,2,5.7c1.4,1,3.5,1.6,6.4,1.6c1.5,0,2.8-0.1,4.1-0.3
				c1.3-0.2,2.2-0.4,2.9-0.6V60.7v-4.8v-10c0.8-0.5,1.9-1,3.1-1.4c1.2-0.5,2.6-0.7,4.1-0.7c2.1,0,3.8,0.6,5.2,1.7
				c1.4,1.1,2.1,2.9,2.1,5.2v5.1v4.8v16.2c0,2.7,0.7,4.6,2,5.7c1.4,1,3.5,1.6,6.5,1.6c1.5,0,2.8-0.1,4.1-0.3
				c1.3-0.2,2.2-0.4,2.9-0.6V60.7v-4.8v-7.1c0-0.7-0.1-1.4-0.2-2.2c0.9-0.7,1.9-1.2,3-1.8c1.4-0.7,3-1,4.6-1c2.2,0,3.9,0.6,5.2,1.7
				c1.3,1.1,2,2.9,2,5.2v5.1v4.8v16.2c0,2.7,0.7,4.6,2,5.7c1.4,1,3.5,1.6,6.5,1.6c1.5,0,2.8-0.1,4.1-0.3c1.3-0.2,2.2-0.4,2.8-0.6
				V60.7v-4.8v-5.6c0-4.5-0.9-8.2-2.8-10.9C583.4,36.7,580.8,34.7,577.7,33.4z"/>
			<path class="st2" d="M638.2,34.4c-3.6-1.9-7.8-2.9-12.6-2.9c-3.3,0-6.4,0.5-9.5,1.6c-3,1-5.8,2.6-8.2,4.8
				c-2.4,2.1-4.3,4.8-5.8,8.1c-1.4,3.3-2.1,7.2-2.1,11.6c0,6.1,1.2,11.1,3.7,15.2c2.4,4.1,5.8,7.1,10.1,9.1s9.1,3,14.5,3
				c3.7,0,7-0.4,9.9-1c2.9-0.7,5.2-1.7,6.8-3.1s2.5-3.1,2.5-5.2c0-1.3-0.3-2.4-1-3.6c-0.7-1.1-1.5-2-2.6-2.6
				c-1.6,0.9-3.7,1.8-6.3,2.6c-2.6,0.8-5.3,1.3-8.3,1.3c-3.6,0-6.8-0.8-9.4-2.5c-2.1-1.3-3.6-3.3-4.4-6.1l27.5-4.1
				c2.1-0.3,3.7-1,4.9-2.1s1.8-2.8,1.8-4.9c0-4.3-1-8.1-3-11.4C644.6,39,641.8,36.4,638.2,34.4z M614.6,54.3c0.3-3.4,1.4-6.1,3.3-8
				c2.1-2.1,4.7-3.2,7.9-3.2c3,0,5.3,0.8,6.8,2.5s2.4,3.5,2.5,5.4L614.6,54.3z"/>
			<path class="st2" d="M703.2,36.5c-4.1-3.3-10-5-17.5-5c-4.2,0-8,0.5-11.5,1.5s-6.4,2.3-8.6,3.8c-1.4,0.9-2.5,1.9-3.2,3.1
				c-0.7,1.2-1.1,2.6-1.1,4.3v11.5v4.8v16.2c0,2.7,0.7,4.6,2,5.7c1.4,1,3.5,1.6,6.4,1.6c1.5,0,2.8-0.1,4.1-0.3
				c1.3-0.2,2.2-0.4,2.9-0.6V60.7v-4.8v-9.7c1.2-0.6,2.5-1.2,4-1.6c1.5-0.5,3.1-0.7,4.8-0.7c2.4,0,4.4,0.6,5.9,1.8s2.3,3.1,2.3,5.7
				v4.5v4.8v16.2c0,2.7,0.7,4.6,2.1,5.7c1.4,1,3.6,1.6,6.5,1.6c1.5,0,2.8-0.1,4.1-0.3c1.3-0.2,2.2-0.4,2.9-0.6V60.7v-4.8v-5
				C709.4,44.6,707.4,39.9,703.2,36.5z"/>
			<path class="st2" d="M752.9,71.4c-0.8,0.4-1.9,0.6-3.1,0.9c-1.2,0.2-2.4,0.4-3.4,0.4c-2.3,0-4.1-0.5-5.3-1.4
				c-1.3-0.9-1.9-2.3-1.9-4.3v-8.6v-2.6v-9.5h10.9c1.6,0,2.9-0.5,3.8-1.5c0.9-1,1.4-2.5,1.4-4.6c0-1.3-0.2-2.4-0.5-3.5
				c-0.4-1-0.7-1.9-1-2.4h-14.6V27c0-2.8-0.7-4.7-2-5.8c-1.3-1-3.5-1.6-6.5-1.6c-1.4,0-2.7,0.1-4,0.4c-1.3,0.2-2.2,0.5-2.9,0.7v35
				v2.6V68c0,6,1.6,10.3,4.9,13c3.2,2.7,7.8,4,13.7,4c4.6,0,7.9-0.8,9.9-2.3s2.9-3.5,2.9-5.9c0-1.2-0.2-2.2-0.7-3.1
				C754,72.8,753.5,72,752.9,71.4z"/>
		</g>
		<g>
			<g>
				<path class="st0" d="M301.9,143.3h-17.6c-1.7,0-3,0.5-4,1.5s-1.5,2.6-1.5,4.8c0,1.3,0.2,2.4,0.5,3.5s0.7,2,1.2,2.7h12.3v12.3
					c-0.8,0.4-1.9,0.7-3.3,1c-1.4,0.4-3,0.5-4.8,0.5c-3.7,0-7-0.8-9.9-2.3s-5.2-3.8-6.8-6.9c-1.6-3.1-2.5-6.9-2.5-11.5
					c0-4.3,0.8-7.9,2.5-11.1c1.7-3.1,4-5.5,7.1-7.1c3-1.6,6.5-2.5,10.3-2.5c3.6,0,6.7,0.5,9.3,1.5c2.7,1,4.9,2,6.6,3.1
					c1.1-0.6,2.1-1.6,2.9-2.8s1.2-2.6,1.2-4.1c0-2.1-0.9-3.9-2.6-5.6c-1.7-1.6-4.2-2.9-7.3-3.8c-3.2-0.9-6.9-1.4-11.3-1.4
					c-6.5,0-12.4,1.3-17.8,3.8c-5.3,2.6-9.6,6.3-12.7,11.3c-3.1,5-4.7,11.2-4.7,18.6c0,7.8,1.6,14.1,4.7,19s7.3,8.6,12.7,10.9
					c5.3,2.3,11.4,3.5,18.1,3.5c3.6,0,7.1-0.4,10.7-1.2s6.3-1.7,8.2-2.8c1.7-0.9,2.9-1.9,3.6-2.9s1.1-2.5,1.1-4.5V149
					c0-2-0.5-3.5-1.6-4.5C305.2,143.9,303.8,143.3,301.9,143.3z"/>
			</g>
			<g>
				<path class="st0" d="M357.8,131.8c-3.6-1.9-7.8-2.9-12.6-2.9c-3.3,0-6.4,0.5-9.5,1.6c-3,1-5.8,2.6-8.2,4.8
					c-2.4,2.1-4.3,4.8-5.8,8.1c-1.4,3.3-2.1,7.2-2.1,11.6c0,6.1,1.2,11.1,3.7,15.2c2.4,4.1,5.8,7.1,10.1,9.1c4.3,2,9.1,3,14.5,3
					c3.7,0,7-0.4,9.9-1c2.9-0.7,5.2-1.7,6.8-3.1c1.6-1.4,2.5-3.1,2.5-5.2c0-1.3-0.3-2.4-1-3.6c-0.7-1.1-1.5-2-2.6-2.6
					c-1.6,0.9-3.7,1.8-6.3,2.6c-2.6,0.8-5.3,1.3-8.3,1.3c-3.6,0-6.8-0.8-9.4-2.5c-2.1-1.3-3.6-3.3-4.4-6.1l27.5-4.1
					c2.1-0.3,3.7-1,4.9-2.1c1.2-1.1,1.8-2.8,1.8-4.9c0-4.3-1-8.1-3-11.4C364.2,136.3,361.4,133.7,357.8,131.8z M334.1,151.6
					c0.3-3.4,1.4-6.1,3.3-8c2.1-2.1,4.7-3.2,7.9-3.2c3,0,5.3,0.8,6.8,2.5s2.4,3.5,2.5,5.4L334.1,151.6z"/>
			</g>
			<g>
				<path class="st0" d="M422.8,133.8c-4.1-3.3-10-5-17.5-5c-4.2,0-8,0.5-11.5,1.5s-6.4,2.3-8.6,3.8c-1.4,0.9-2.5,1.9-3.2,3.1
					c-0.7,1.2-1.1,2.6-1.1,4.3V153v4.8V174c0,2.7,0.7,4.6,2,5.7c1.4,1,3.5,1.6,6.4,1.6c1.5,0,2.8-0.1,4.1-0.3
					c1.3-0.2,2.2-0.4,2.9-0.6V158v-4.8v-9.7c1.2-0.6,2.5-1.2,4-1.6c1.5-0.5,3.1-0.7,4.8-0.7c2.4,0,4.4,0.6,5.9,1.8s2.3,3.1,2.3,5.7
					v4.5v4.8v16.2c0,2.7,0.7,4.6,2.1,5.7c1.4,1,3.6,1.6,6.5,1.6c1.5,0,2.8-0.1,4.1-0.3c1.3-0.2,2.2-0.4,2.9-0.6V158v-4.8v-5
					C429,141.9,426.9,137.2,422.8,133.8z"/>
			</g>
			<g>
				<path class="st0" d="M457.2,131.6c-1.3-1-3.5-1.5-6.5-1.5c-1.5,0-2.8,0.1-4.1,0.3c-1.3,0.2-2.3,0.4-2.9,0.6v22v8.1v13.1
					c0,2.7,0.7,4.6,2,5.7c1.4,1,3.5,1.6,6.5,1.6c1.5,0,2.8-0.1,4.1-0.3c1.3-0.2,2.2-0.4,2.8-0.6v-19.5V153v-15.6
					C459.2,134.6,458.5,132.7,457.2,131.6z"/>
			</g>
			<g>
				<path class="st0" d="M451.4,107.6c-2.5,0-4.6,0.8-6.2,2.4s-2.5,3.6-2.5,6c0,2.3,0.8,4.3,2.5,6c1.6,1.7,3.7,2.5,6.2,2.5
					c2.6,0,4.7-0.8,6.3-2.5c1.6-1.7,2.4-3.7,2.4-6c0-2.4-0.8-4.4-2.4-6C456.1,108.4,454,107.6,451.4,107.6z"/>
			</g>
			<g>
				<path class="st0" d="M509.6,131.8c-3.6-1.9-7.8-2.9-12.6-2.9c-3.3,0-6.4,0.5-9.5,1.6c-3,1-5.8,2.6-8.2,4.8
					c-2.4,2.1-4.3,4.8-5.8,8.1c-1.4,3.3-2.1,7.2-2.1,11.6c0,6.1,1.2,11.1,3.7,15.2c2.4,4.1,5.8,7.1,10.1,9.1c4.3,2,9.1,3,14.5,3
					c3.7,0,7-0.4,9.9-1c2.9-0.7,5.2-1.7,6.8-3.1c1.6-1.4,2.5-3.1,2.5-5.2c0-1.3-0.3-2.4-1-3.6c-0.7-1.1-1.5-2-2.6-2.6
					c-1.6,0.9-3.7,1.8-6.3,2.6c-2.6,0.8-5.3,1.3-8.3,1.3c-3.6,0-6.8-0.8-9.4-2.5c-2.1-1.3-3.6-3.3-4.4-6.1l27.5-4.1
					c2.1-0.3,3.7-1,4.9-2.1s1.8-2.8,1.8-4.9c0-4.3-1-8.1-3-11.4C516,136.3,513.2,133.7,509.6,131.8z M486,151.6
					c0.3-3.4,1.4-6.1,3.3-8c2.1-2.1,4.7-3.2,7.9-3.2c3,0,5.3,0.8,6.8,2.5s2.4,3.5,2.5,5.4L486,151.6z"/>
			</g>
		</g>
	</g>
</g>
</svg>
