<svg width="60" height="60" viewBox="0 0 60 60" fill="none" xmlns="http://www.w3.org/2000/svg">
<path d="M-0.000288285 30C-0.000288374 31.02 0.0597092 32.01 0.149709 33L25.4997 33L25.4997 37.5C25.4998 38.0933 25.6758 38.6731 26.0055 39.1664C26.3351 39.6596 26.8036 40.044 27.3517 40.271C27.8998 40.498 28.5029 40.5574 29.0848 40.4417C29.6666 40.326 30.2011 40.0404 30.6207 39.621L38.1207 32.121C38.6831 31.5584 38.999 30.7955 38.999 30C38.999 29.2045 38.6831 28.4416 38.1207 27.879L30.6207 20.379C30.2011 19.9596 29.6666 19.674 29.0848 19.5583C28.5029 19.4426 27.8998 19.502 27.3517 19.729C26.8036 19.956 26.3351 20.3404 26.0055 20.8336C25.6758 21.3269 25.4998 21.9068 25.4997 22.5L25.4997 27L0.14971 27C0.0597095 27.99 -0.000288195 28.98 -0.000288285 30Z" fill="#72BF01"/>
<path opacity="0.25" d="M25.5004 27L25.5004 22.5C25.5005 21.9068 25.6766 21.3269 26.0062 20.8336C26.3359 20.3404 26.8044 19.956 27.3525 19.729C27.9006 19.502 28.5037 19.4426 29.0855 19.5583C29.6674 19.674 30.2019 19.9596 30.6214 20.379L38.1214 27.879C38.6838 28.4416 38.9998 29.2045 38.9998 30C38.9998 30.7955 38.6838 31.5584 38.1214 32.121L30.6214 39.621C30.2019 40.0404 29.6674 40.326 29.0855 40.4417C28.5036 40.5574 27.9006 40.498 27.3525 40.271C26.8044 40.044 26.3359 39.6596 26.0062 39.1664C25.6766 38.6731 25.5005 38.0932 25.5004 37.5L25.5004 33L0.150444 33C0.920092 40.6579 4.60349 47.7271 10.4388 52.7455C16.2742 57.7639 23.8151 60.3477 31.5019 59.9623C39.1887 59.577 46.4335 56.2522 51.7377 50.6754C57.042 45.0986 60 37.6965 60 30C60 22.3035 57.042 14.9014 51.7377 9.32463C46.4335 3.74784 39.1888 0.422954 31.5019 0.0376466C23.8151 -0.347661 16.2742 2.23608 10.4388 7.25449C4.6035 12.2729 0.920094 19.3421 0.150445 27L25.5004 27Z" fill="#72BF01"/>
</svg>
