<svg width="55" height="51" viewBox="0 0 55 51" fill="none" xmlns="http://www.w3.org/2000/svg">
<rect x="0.145752" width="54.375" height="51" rx="14" fill="#EDF4D9"/>
<g clip-path="url(#clip0_65_707)">
<path d="M24.5225 14.2518L22.5344 14.9953C22.3762 15.0533 22.2708 15.2062 22.2708 15.375C22.2708 15.5437 22.3762 15.6967 22.5344 15.7547L24.5225 16.4982L25.2661 18.4863C25.3241 18.6445 25.477 18.75 25.6458 18.75C25.8145 18.75 25.9674 18.6445 26.0254 18.4863L26.769 16.4982L28.7571 15.7547C28.9153 15.6967 29.0208 15.5437 29.0208 15.375C29.0208 15.2062 28.9153 15.0533 28.7571 14.9953L26.769 14.2518L26.0254 12.2637C25.9674 12.1055 25.8145 12 25.6458 12C25.477 12 25.3241 12.1055 25.2661 12.2637L24.5225 14.2518ZM14.5768 32.8512C13.5907 33.8373 13.5907 35.4404 14.5768 36.4318L16.4014 38.2564C17.3875 39.2426 18.9907 39.2426 19.9821 38.2564L40.0897 18.1436C41.0758 17.1574 41.0758 15.5543 40.0897 14.5629L38.2651 12.7436C37.279 11.7574 35.6758 11.7574 34.6844 12.7436L14.5768 32.8512ZM37.7008 16.3559L32.1637 21.893L30.935 20.6643L36.4721 15.1271L37.7008 16.3559ZM12.5413 18.1805C12.304 18.2701 12.1458 18.4969 12.1458 18.75C12.1458 19.0031 12.304 19.2299 12.5413 19.3195L15.5208 20.4375L16.6387 23.417C16.7284 23.6543 16.9551 23.8125 17.2083 23.8125C17.4614 23.8125 17.6881 23.6543 17.7778 23.417L18.8958 20.4375L21.8752 19.3195C22.1125 19.2299 22.2708 19.0031 22.2708 18.75C22.2708 18.4969 22.1125 18.2701 21.8752 18.1805L18.8958 17.0625L17.7778 14.083C17.6881 13.8457 17.4614 13.6875 17.2083 13.6875C16.9551 13.6875 16.7284 13.8457 16.6387 14.083L15.5208 17.0625L12.5413 18.1805ZM31.1038 31.6805C30.8665 31.7701 30.7083 31.9969 30.7083 32.25C30.7083 32.5031 30.8665 32.7299 31.1038 32.8195L34.0833 33.9375L35.2012 36.917C35.2909 37.1543 35.5176 37.3125 35.7708 37.3125C36.0239 37.3125 36.2506 37.1543 36.3403 36.917L37.4583 33.9375L40.4377 32.8195C40.675 32.7299 40.8333 32.5031 40.8333 32.25C40.8333 31.9969 40.675 31.7701 40.4377 31.6805L37.4583 30.5625L36.3403 27.583C36.2506 27.3457 36.0239 27.1875 35.7708 27.1875C35.5176 27.1875 35.2909 27.3457 35.2012 27.583L34.0833 30.5625L31.1038 31.6805Z" fill="#72BF01"/>
</g>
<defs>
<clipPath id="clip0_65_707">
<rect width="30.375" height="27" fill="white" transform="translate(12.1458 12)"/>
</clipPath>
</defs>
</svg>
