<svg width="34" height="29" viewBox="0 0 34 29" fill="none" xmlns="http://www.w3.org/2000/svg">
<path d="M18.9464 4.00955L16.1926 5.50585C15.9732 5.62322 15.8505 5.86863 15.8852 6.1155C15.9199 6.36237 16.1055 6.56443 16.3487 6.61679L19.4083 7.29606L20.9042 10.0518C21.0216 10.2713 21.2668 10.3942 21.5136 10.3595C21.7603 10.3248 21.9622 10.1391 22.0145 9.89572L22.6928 6.83446L25.4467 5.33815C25.666 5.22078 25.7888 4.97538 25.7541 4.72851C25.7194 4.48164 25.5338 4.27958 25.2905 4.22722L22.2309 3.54795L20.7351 0.792248C20.6177 0.572723 20.3724 0.449851 20.1257 0.484526C19.879 0.519201 19.6771 0.704921 19.6248 0.948285L18.9464 4.00955ZM1.25017 15.2685C0.921643 15.4484 0.736962 15.8127 0.789006 16.183C0.841049 16.5533 1.11898 16.8525 1.48436 16.9349L6.07044 17.9582L8.31758 22.0874C8.49745 22.4161 8.86151 22.601 9.23159 22.549C9.60168 22.497 9.90069 22.2189 9.98297 21.8533L11.0049 17.2647L15.1313 15.017C15.4598 14.8371 15.6445 14.4728 15.5924 14.1025C15.5404 13.7322 15.2625 13.433 14.8971 13.3506L10.311 12.3273L8.06385 8.19811C7.88399 7.86937 7.51993 7.68452 7.14984 7.73653C6.77976 7.78854 6.48075 8.06658 6.39847 8.43217L5.37652 13.0208L1.25017 15.2685ZM19.3388 21.4589C19.0103 21.6388 18.8256 22.0031 18.8777 22.3734C18.9297 22.7437 19.2076 23.0429 19.573 23.1253L24.1591 24.1486L26.4063 28.2778C26.5861 28.6065 26.9502 28.7914 27.3203 28.7393C27.6903 28.6873 27.9894 28.4093 28.0716 28.0437L29.0936 23.4551L33.2199 21.2074C33.5485 21.0274 33.7331 20.6632 33.6811 20.2929C33.6291 19.9226 33.3511 19.6233 32.9857 19.541L28.3997 18.5176L26.1525 14.3885C25.9727 14.0598 25.6086 13.8749 25.2385 13.9269C24.8684 13.9789 24.5694 14.257 24.4871 14.6226L23.4652 19.2111L19.3388 21.4589Z" fill="#F9F9F9"/>
</svg>
