<svg width="18" height="17" viewBox="0 0 18 17" fill="none" xmlns="http://www.w3.org/2000/svg">
<path d="M10.8622 2.33656L9.24169 2.94301C9.11273 2.99032 9.02676 3.11505 9.02676 3.25269C9.02676 3.39032 9.11273 3.51505 9.24169 3.56237L10.8622 4.16882L11.4683 5.79032C11.5156 5.91935 11.6402 6.00538 11.7778 6.00538C11.9153 6.00538 12.04 5.91935 12.0873 5.79032L12.6933 4.16882L14.3139 3.56237C14.4428 3.51505 14.5288 3.39032 14.5288 3.25269C14.5288 3.11505 14.4428 2.99032 14.3139 2.94301L12.6933 2.33656L12.0873 0.715054C12.04 0.586022 11.9153 0.5 11.7778 0.5C11.6402 0.5 11.5156 0.586022 11.4683 0.715054L10.8622 2.33656ZM0.322384 7.13226C0.128954 7.20538 0 7.39032 0 7.59677C0 7.80323 0.128954 7.98817 0.322384 8.06129L2.75101 8.97312L3.66229 11.4032C3.73536 11.5968 3.92019 11.7258 4.12652 11.7258C4.33285 11.7258 4.51768 11.5968 4.59075 11.4032L5.50203 8.97312L7.93066 8.06129C8.12409 7.98817 8.25304 7.80323 8.25304 7.59677C8.25304 7.39032 8.12409 7.20538 7.93066 7.13226L5.50203 6.22043L4.59075 3.79032C4.51768 3.59677 4.33285 3.46774 4.12652 3.46774C3.92019 3.46774 3.73536 3.59677 3.66229 3.79032L2.75101 6.22043L0.322384 7.13226ZM9.73601 11.9065C9.54258 11.9796 9.41362 12.1645 9.41362 12.371C9.41362 12.5774 9.54258 12.7624 9.73601 12.8355L12.1646 13.7473L13.0759 16.1774C13.149 16.371 13.3338 16.5 13.5401 16.5C13.7465 16.5 13.9313 16.371 14.0044 16.1774L14.9157 13.7473L17.3443 12.8355C17.5377 12.7624 17.6667 12.5774 17.6667 12.371C17.6667 12.1645 17.5377 11.9796 17.3443 11.9065L14.9157 10.9946L14.0044 8.56452C13.9313 8.37097 13.7465 8.24194 13.5401 8.24194C13.3338 8.24194 13.149 8.37097 13.0759 8.56452L12.1646 10.9946L9.73601 11.9065Z" fill="#081F24"/>
</svg>
