<svg width="46" height="48" viewBox="0 0 46 48" fill="none" xmlns="http://www.w3.org/2000/svg">
<path d="M21.1853 2.11125L21.1861 2.11059C22.2496 1.29647 23.7282 1.29647 24.7916 2.11059L24.7925 2.11125L43.804 16.6438L43.8041 16.6439C45.0877 17.6249 44.4003 19.6692 42.7911 19.6801H3.18287C1.5757 19.6692 0.888332 17.6247 2.17275 16.6446L2.17378 16.6438L21.1853 2.11125Z" stroke="#72BF01" stroke-width="3" stroke-linecap="round"/>
<path fill-rule="evenodd" clip-rule="evenodd" d="M46 47C46 47.5523 45.5523 48 45 48H1C0.447715 48 0 47.5523 0 47V46C0 45.4477 0.447715 45 1 45H45C45.5523 45 46 45.4477 46 46V47Z" fill="#72BF01"/>
<path fill-rule="evenodd" clip-rule="evenodd" d="M8 41.5C7.44772 41.5 7 41.0523 7 40.5V26C7 25.4477 7.44772 25 8 25H9C9.55228 25 10 25.4477 10 26V40.5C10 41.0523 9.55228 41.5 9 41.5H8Z" fill="#EDF4D9"/>
<path fill-rule="evenodd" clip-rule="evenodd" d="M18 41.5C17.4477 41.5 17 41.0523 17 40.5V26C17 25.4477 17.4477 25 18 25H19C19.5523 25 20 25.4477 20 26V40.5C20 41.0523 19.5523 41.5 19 41.5H18Z" fill="#EDF4D9"/>
<path fill-rule="evenodd" clip-rule="evenodd" d="M28 41.5C27.4477 41.5 27 41.0523 27 40.5V26C27 25.4477 27.4477 25 28 25H29C29.5523 25 30 25.4477 30 26V40.5C30 41.0523 29.5523 41.5 29 41.5H28Z" fill="#EDF4D9"/>
<path fill-rule="evenodd" clip-rule="evenodd" d="M38 41.5C37.4477 41.5 37 41.0523 37 40.5V26C37 25.4477 37.4477 25 38 25H39C39.5523 25 40 25.4477 40 26V40.5C40 41.0523 39.5523 41.5 39 41.5H38Z" fill="#EDF4D9"/>
</svg>
