<svg width="44" height="48" viewBox="0 0 44 48" fill="none" xmlns="http://www.w3.org/2000/svg">
<path fill-rule="evenodd" clip-rule="evenodd" d="M4.93503 4.93321L4.93322 4.93503C4.17786 5.68974 3.63168 6.7848 3.32483 9.06629C3.00638 11.434 3 14.59 3 19.2V28.8C3 33.41 3.00638 36.566 3.32483 38.9337C3.63168 41.2152 4.17786 42.3103 4.93321 43.065L4.93503 43.0668C5.68974 43.8221 6.7848 44.3683 9.06629 44.6752C11.434 44.9936 14.59 45 19.2 45H24C28.61 45 31.766 44.9936 34.1337 44.6752C36.4152 44.3683 37.5103 43.8221 38.265 43.0668L38.2668 43.065C39.0221 42.3103 39.5683 41.2152 39.8752 38.9337C40.1936 36.566 40.2 33.41 40.2 28.8V19.2C40.2 14.59 40.1936 11.434 39.8752 9.06629C39.5683 6.7848 39.0221 5.68974 38.2668 4.93503L38.265 4.93322C37.5103 4.17786 36.4152 3.63168 34.1337 3.32483C31.766 3.00638 28.61 3 24 3H19.2C14.59 3 11.434 3.00638 9.06629 3.32483C6.7848 3.63168 5.68974 4.17786 4.93503 4.93321ZM2.8128 2.8128C0 5.6232 0 10.1496 0 19.2V28.8C0 37.8504 0 42.3768 2.8128 45.1872C5.6232 48 10.1496 48 19.2 48H24C33.0504 48 37.5768 48 40.3872 45.1872C43.2 42.3768 43.2 37.8504 43.2 28.8V19.2C43.2 10.1496 43.2 5.6232 40.3872 2.8128C37.5768 0 33.0504 0 24 0H19.2C10.1496 0 5.6232 0 2.8128 2.8128Z" fill="#72BF01"/>
<path fill-rule="evenodd" clip-rule="evenodd" d="M10.2002 19.1999C10.2002 18.7225 10.3898 18.2647 10.7274 17.9271C11.065 17.5895 11.5228 17.3999 12.0002 17.3999H31.2002C31.6776 17.3999 32.1354 17.5895 32.473 17.9271C32.8106 18.2647 33.0002 18.7225 33.0002 19.1999C33.0002 19.6773 32.8106 20.1351 32.473 20.4727C32.1354 20.8103 31.6776 20.9999 31.2002 20.9999H12.0002C11.5228 20.9999 11.065 20.8103 10.7274 20.4727C10.3898 20.1351 10.2002 19.6773 10.2002 19.1999ZM10.2002 28.7999C10.2002 28.3225 10.3898 27.8647 10.7274 27.5271C11.065 27.1895 11.5228 26.9999 12.0002 26.9999H24.0002C24.4776 26.9999 24.9354 27.1895 25.273 27.5271C25.6106 27.8647 25.8002 28.3225 25.8002 28.7999C25.8002 29.2773 25.6106 29.7351 25.273 30.0727C24.9354 30.4103 24.4776 30.5999 24.0002 30.5999H12.0002C11.5228 30.5999 11.065 30.4103 10.7274 30.0727C10.3898 29.7351 10.2002 29.2773 10.2002 28.7999Z" fill="#EDF4D9"/>
</svg>
