<svg width="58" height="60" viewBox="0 0 58 60" fill="none" xmlns="http://www.w3.org/2000/svg">
<path opacity="0.25" d="M3.38892 17.1239C5.82651 14.6834 9.33976 14.001 15.1865 13.8101L19.5239 13.7407C20.6545 13.7349 21.8602 13.7349 23.1325 13.7349H34.6988C35.974 13.7349 37.1769 13.7349 38.3075 13.7407L42.6448 13.8101C48.4916 14.001 52.0048 14.6834 54.4424 17.1239C57.8313 20.5099 57.8313 25.9634 57.8313 36.8675C57.8313 47.7716 57.8313 53.2251 54.4424 56.6111C51.0564 60 45.6029 60 34.6988 60H23.1325C12.2284 60 6.77494 60 3.38892 56.6111C-3.44702e-07 53.2251 0 47.7716 0 36.8675C0 25.9634 -3.44702e-07 20.5099 3.38892 17.1239Z" fill="#72BF01"/>
<path d="M31.0844 25.3012C31.0844 24.726 30.8559 24.1744 30.4492 23.7677C30.0425 23.361 29.4908 23.1325 28.9157 23.1325C28.3405 23.1325 27.7889 23.361 27.3822 23.7677C26.9755 24.1744 26.747 24.726 26.747 25.3012V25.3301C23.5981 26.1224 20.9639 28.6063 20.9639 32.0472C20.9639 36.2602 24.9109 39.0361 28.9157 39.0361C31.2983 39.0361 32.5301 40.5773 32.5301 41.6877C32.5301 42.7981 31.2983 44.3364 28.9157 44.3364C26.533 44.3364 25.3012 42.7981 25.3012 41.6877C25.3012 41.1125 25.0727 40.5609 24.666 40.1542C24.2593 39.7475 23.7077 39.519 23.1325 39.519C22.5574 39.519 22.0058 39.7475 21.5991 40.1542C21.1924 40.5609 20.9639 41.1125 20.9639 41.6877C20.9639 45.1287 23.5981 47.6096 26.747 48.4048V48.4337C26.747 49.0089 26.9755 49.5605 27.3822 49.9672C27.7889 50.3739 28.3405 50.6024 28.9157 50.6024C29.4908 50.6024 30.0425 50.3739 30.4492 49.9672C30.8559 49.5605 31.0844 49.0089 31.0844 48.4337V48.4048C34.2333 47.6125 36.8675 45.1287 36.8675 41.6877C36.8675 37.4747 32.9205 34.6988 28.9157 34.6988C26.533 34.6988 25.3012 33.1576 25.3012 32.0472C25.3012 30.9369 26.533 29.3986 28.9157 29.3986C31.2983 29.3986 32.5301 30.9369 32.5301 32.0472C32.5301 32.6224 32.7586 33.174 33.1653 33.5807C33.572 33.9874 34.1236 34.2159 34.6988 34.2159C35.274 34.2159 35.8256 33.9874 36.2323 33.5807C36.639 33.174 36.8675 32.6224 36.8675 32.0472C36.8675 28.6063 34.2333 26.1224 31.0844 25.3301V25.3012ZM29.066 0H28.7653C26.1687 0 24 1.29263e-07 22.2824 0.231325C20.4665 0.474217 18.827 1.01205 17.5113 2.32771C16.1928 3.64627 15.655 5.28578 15.4121 7.09879C15.2472 8.33349 15.201 11.28 15.1865 13.8072L19.5239 13.7407C19.5383 11.2916 19.5817 8.65735 19.7118 7.67711C19.8911 6.3441 20.2005 5.77157 20.5793 5.39566C20.9552 5.01976 21.5248 4.71036 22.8607 4.52819C24.2574 4.34313 26.1282 4.33735 28.9157 4.33735C31.7032 4.33735 33.5769 4.34313 34.9735 4.53108C36.3065 4.71036 36.8791 5.01976 37.255 5.39855C37.6309 5.77446 37.9432 6.3441 38.1224 7.67711C38.2525 8.66024 38.2959 11.2916 38.3075 13.7407L42.6448 13.8101C42.6333 11.28 42.587 8.33349 42.4193 7.10169C42.1764 5.28578 41.6386 3.64627 40.3229 2.3306C39.0044 1.01205 37.3648 0.474217 35.5518 0.231325C33.8313 1.29263e-07 31.6656 0 29.066 0Z" fill="#72BF01"/>
</svg>
