<svg width="48" height="48" viewBox="0 0 48 48" fill="none" xmlns="http://www.w3.org/2000/svg">
<path fill-rule="evenodd" clip-rule="evenodd" d="M0 10C0 8.89543 0.89543 8 2 8H9C10.1046 8 11 8.89543 11 10C11 11.1046 10.1046 12 9 12H2C0.89543 12 0 11.1046 0 10Z" fill="#72BF01"/>
<path fill-rule="evenodd" clip-rule="evenodd" d="M48 38C48 39.1046 47.1046 40 46 40L39 40C37.8954 40 37 39.1046 37 38C37 36.8954 37.8954 36 39 36L46 36C47.1046 36 48 36.8954 48 38Z" fill="#EDF4D9"/>
<path fill-rule="evenodd" clip-rule="evenodd" d="M31 10C31 8.89543 31.8954 8 33 8H46C47.1046 8 48 8.89543 48 10C48 11.1046 47.1046 12 46 12H33C31.8954 12 31 11.1046 31 10Z" fill="#72BF01"/>
<path fill-rule="evenodd" clip-rule="evenodd" d="M17 38C17 39.1046 16.1046 40 15 40L2 40C0.895431 40 -7.8281e-08 39.1046 -1.74846e-07 38C-2.7141e-07 36.8954 0.89543 36 2 36L15 36C16.1046 36 17 36.8954 17 38Z" fill="#EDF4D9"/>
<circle cx="16.5" cy="9.5" r="9.5" fill="#EDF4D9"/>
<circle cx="31.5" cy="38.5" r="9.5" transform="rotate(180 31.5 38.5)" fill="#72BF01"/>
</svg>
