<svg width="35" height="35" viewBox="0 0 35 35" fill="none" xmlns="http://www.w3.org/2000/svg">
<rect x="3.375" y="3.375" width="28.25" height="28.25" rx="9.125" stroke="#EDF4D9" stroke-width="1.75"/>
<path d="M17.5 10C15.5109 10 13.6032 10.7902 12.1967 12.1967C10.7902 13.6032 10 15.5109 10 17.5C10 19.4891 10.7902 21.3968 12.1967 22.8033C13.6032 24.2098 15.5109 25 17.5 25C19.4891 25 21.3968 24.2098 22.8033 22.8033C24.2098 21.3968 25 19.4891 25 17.5C25 15.5109 24.2098 13.6032 22.8033 12.1967C21.3968 10.7902 19.4891 10 17.5 10ZM17.5762 13.2144C17.8575 13.2144 18.1387 13.2419 18.415 13.2969L17.5762 15.0506C16.2262 15.05 15.1269 16.15 15.1269 17.5C15.1269 18.85 16.2269 19.95 17.5769 19.95C18.1625 19.95 18.7294 19.7387 19.1725 19.3556L20.0994 20.9631C19.4603 21.4287 18.7048 21.7084 17.9166 21.7712C17.1284 21.834 16.3382 21.6775 15.6335 21.319C14.9287 20.9605 14.3369 20.414 13.9235 19.74C13.5101 19.066 13.2913 18.2907 13.2912 17.5C13.2912 16.3635 13.7427 15.2736 14.5463 14.47C15.3499 13.6665 16.4398 13.2144 17.5762 13.2144ZM19.7625 13.5206C19.7679 13.5206 19.7733 13.5206 19.7787 13.5206C20.0456 13.5206 20.2737 13.5913 20.4669 13.7331C20.6606 13.8763 20.7581 14.0744 20.7581 14.3244C20.7581 14.7238 20.5331 14.9681 20.1112 15.1844L19.8756 15.3038C19.6237 15.4313 19.4994 15.5444 19.465 15.745H20.7463V16.2762H18.8081V16.1862C18.8081 15.8575 18.8725 15.5862 19.0044 15.37C19.1362 15.1544 19.3644 14.9638 19.6931 14.7969L19.8444 14.7238C20.1113 14.5888 20.1806 14.4731 20.1806 14.3331C20.1806 14.1669 20.0381 14.0469 19.8056 14.0469C19.5306 14.0469 19.3225 14.1894 19.1781 14.4806L18.8081 14.1087C18.8894 13.9344 19.0194 13.795 19.195 13.6869C19.3646 13.5789 19.5614 13.5212 19.7625 13.5206ZM18.4538 16.8881H20.575L21.6356 18.7238L20.575 20.5613L19.5144 18.7238H17.3937L18.4538 16.8881Z" fill="#EDF4D9"/>
</svg>
