<svg width="49" height="64" viewBox="0 0 49 64" fill="none" xmlns="http://www.w3.org/2000/svg">
<g clip-path="url(#clip0_65_1091)">
<path d="M30.8043 31.0985C32.3784 23.8383 36.4987 15.8693 45.7363 9.12347L15.9224 0C15.9224 0 3.74394 7.45795 0.692627 23.3524L28.6563 9.23573C27.2093 18.1615 28.4054 25.3698 30.8043 31.0985Z" fill="#41B9EA"/>
<path d="M30.8042 31.0986C28.2732 42.7706 32.3266 52.618 32.3266 52.618L2.21826 43.5414C7.64839 58.2495 21.1668 64.0001 21.1668 64.0001L49 49.9354C49 49.9354 36.5037 44.7076 30.8042 31.0986Z" fill="#26B797"/>
<path d="M30.8042 31.0987C28.4053 25.3716 27.2092 18.1633 28.6562 9.23584L0.692568 23.3525C0.249257 25.6313 0 28.081 0 30.7099C0 35.5858 0.856509 39.8451 2.21822 43.5397L32.3265 52.6163C32.3265 52.6163 28.2732 42.769 30.8042 31.097V31.0987Z" fill="#005E8F"/>
</g>
<defs>
<clipPath id="clip0_65_1091">
<rect width="49" height="64" fill="white"/>
</clipPath>
</defs>
</svg>
