<svg width="35" height="35" viewBox="0 0 35 35" fill="none" xmlns="http://www.w3.org/2000/svg">
<rect x="3.375" y="3.375" width="28.25" height="28.25" rx="9.125" stroke="#EDF4D9" stroke-width="1.75"/>
<path d="M11.2625 24H13.8875V14.2875H11.2625V24ZM12.575 10C11.7 10 11 10.7 11 11.575C11 12.45 11.7 13.15 12.575 13.15C13.45 13.15 14.15 12.45 14.15 11.575C14.15 10.7 13.45 10 12.575 10ZM18.35 15.775V14.2875H15.725V24H18.35V19.0125C18.35 16.2125 21.9375 16.0375 21.9375 19.0125V24H24.5625V18.05C24.5625 13.325 19.575 13.5 18.35 15.775Z" fill="#EDF4D9"/>
</svg>
