<?xml version="1.0" encoding="utf-8"?>
<!-- Generator: Adobe Illustrator 27.8.0, SVG Export Plug-In . SVG Version: 6.00 Build 0)  -->
<svg version="1.1" id="Layer_1" xmlns="http://www.w3.org/2000/svg" xmlns:xlink="http://www.w3.org/1999/xlink" x="0px" y="0px"
	 viewBox="0 0 24 24" style="enable-background:new 0 0 24 24;" xml:space="preserve">
<style type="text/css">
	.st0{fill-rule:evenodd;clip-rule:evenodd;fill:#EDF4D9;}
</style>
<path class="st0" d="M6.5,3.6c-0.7,0-1.7,0.2-2.4,0.3C4,3.9,3.9,4,3.9,4.1C3.8,4.9,3.6,6.4,3.6,7.5s0.2,2.6,0.3,3.4
	c0,0.1,0.1,0.2,0.2,0.2c0.7,0.1,1.7,0.3,2.4,0.3s1.7-0.2,2.4-0.3c0.1,0,0.1-0.1,0.2-0.2c0.1-0.9,0.3-2.4,0.3-3.4S9.2,4.9,9.1,4.1
	C9.1,4,9,3.9,8.9,3.9C8.2,3.7,7.2,3.6,6.5,3.6z M3.8,2.3C4.5,2.2,5.6,2,6.5,2s2,0.2,2.7,0.3c0.7,0.1,1.3,0.7,1.4,1.5
	C10.8,4.7,11,6.3,11,7.5s-0.2,2.8-0.4,3.7c-0.1,0.7-0.7,1.3-1.4,1.5C8.5,12.8,7.4,13,6.5,13s-2-0.2-2.7-0.3
	c-0.7-0.1-1.3-0.7-1.4-1.5C2.2,10.3,2,8.7,2,7.5s0.2-2.8,0.4-3.7C2.5,3.1,3,2.5,3.8,2.3z"/>
<path class="st0" d="M17.5,20.4c-0.7,0-1.7-0.2-2.4-0.3c-0.1,0-0.1-0.1-0.2-0.2c-0.1-0.9-0.3-2.4-0.3-3.4s0.2-2.6,0.3-3.4
	c0-0.1,0.1-0.2,0.2-0.2c0.7-0.1,1.7-0.3,2.4-0.3s1.7,0.2,2.4,0.3c0.1,0,0.1,0.1,0.2,0.2c0.1,0.9,0.3,2.4,0.3,3.4s-0.2,2.6-0.3,3.4
	c0,0.1-0.1,0.2-0.2,0.2C19.2,20.3,18.2,20.4,17.5,20.4z M14.8,21.7c0.7,0.1,1.8,0.3,2.7,0.3s2-0.2,2.7-0.3c0.7-0.1,1.3-0.7,1.4-1.5
	c0.1-0.9,0.4-2.5,0.4-3.7s-0.2-2.8-0.4-3.7c-0.1-0.7-0.7-1.3-1.4-1.5c-0.7-0.1-1.8-0.3-2.7-0.3s-2,0.2-2.7,0.3
	c-0.7,0.1-1.3,0.7-1.4,1.5c-0.1,0.9-0.4,2.5-0.4,3.7s0.2,2.8,0.4,3.7C13.5,20.9,14,21.5,14.8,21.7z"/>
<path class="st0" d="M6.5,16.6c-0.8,0-1.8,0.2-2.5,0.3c-0.1,0-0.1,0.1-0.1,0.1c-0.1,0.5-0.3,1.1-0.3,1.5s0.1,1,0.3,1.5
	c0,0.1,0.1,0.1,0.1,0.1c0.7,0.1,1.8,0.3,2.5,0.3s1.8-0.2,2.5-0.3c0.1,0,0.1-0.1,0.1-0.1c0.1-0.5,0.3-1.1,0.3-1.5s-0.1-1-0.3-1.5
	c0-0.1-0.1-0.1-0.1-0.1C8.3,16.8,7.3,16.6,6.5,16.6z M3.7,15.3C4.4,15.2,5.6,15,6.5,15s2.1,0.2,2.8,0.3c0.6,0.1,1.2,0.6,1.4,1.3
	c0.1,0.5,0.3,1.2,0.3,1.9s-0.2,1.4-0.3,1.9c-0.2,0.7-0.7,1.1-1.4,1.3C8.6,21.8,7.4,22,6.5,22s-2.1-0.2-2.8-0.3
	c-0.6-0.1-1.2-0.6-1.4-1.3C2.2,19.9,2,19.1,2,18.5s0.2-1.4,0.3-1.9C2.5,15.9,3,15.5,3.7,15.3z"/>
<path class="st0" d="M17.5,7.4c-0.8,0-1.8-0.2-2.5-0.3c-0.1,0-0.1-0.1-0.1-0.1c-0.1-0.5-0.3-1.1-0.3-1.5s0.1-1,0.3-1.5
	c0-0.1,0.1-0.1,0.1-0.1c0.7-0.1,1.8-0.3,2.5-0.3s1.8,0.2,2.5,0.3c0.1,0,0.1,0.1,0.1,0.1c0.1,0.5,0.3,1.1,0.3,1.5s-0.1,1-0.3,1.5
	c0,0.1-0.1,0.1-0.1,0.1C19.3,7.2,18.3,7.4,17.5,7.4z M14.7,8.7C15.4,8.8,16.6,9,17.5,9s2.1-0.2,2.8-0.3c0.6-0.1,1.2-0.6,1.4-1.3
	C21.8,6.9,22,6.1,22,5.5s-0.2-1.4-0.3-1.9c-0.2-0.7-0.7-1.1-1.4-1.3C19.6,2.2,18.4,2,17.5,2s-2.1,0.2-2.8,0.3
	c-0.6,0.1-1.2,0.6-1.4,1.3C13.2,4.1,13,4.9,13,5.5s0.2,1.4,0.3,1.9C13.5,8.1,14,8.5,14.7,8.7z"/>
</svg>
