<svg width="51" height="51" viewBox="0 0 51 51" fill="none" xmlns="http://www.w3.org/2000/svg">
<path d="M18.2593 4.9859L17.7612 5.1984L15.8136 2.99093L16.0818 5.9152L15.5838 6.1277L13.02 3.23197L13.5277 3.0163L15.5678 5.3665L15.2932 2.38831L15.7594 2.19167L17.7388 4.44038L17.4323 1.35118L17.9208 1.14502L18.2656 4.9859H18.2593Z" fill="#081F24"/>
<path d="M22.1091 4.03146L21.6398 4.13295L21.544 3.74918C21.4706 3.90776 21.3557 4.04732 21.2056 4.16467C21.0555 4.28202 20.8799 4.36131 20.6852 4.40571C20.4457 4.45646 20.2191 4.44695 20.0083 4.37083C19.7944 4.29471 19.6124 4.16784 19.4592 3.99023C19.3059 3.81261 19.2006 3.59377 19.1463 3.33686C19.0888 3.07996 19.092 2.83891 19.1559 2.61372C19.2197 2.38854 19.3315 2.19824 19.4943 2.03965C19.6571 1.88424 19.8583 1.77958 20.0945 1.72566C20.2925 1.68126 20.484 1.68443 20.6692 1.72566C20.8544 1.77006 21.0172 1.84935 21.1513 1.96353L21.0779 1.57659L21.5472 1.4751L22.1091 4.03146ZM20.6948 3.95851C20.8608 3.92362 21.0013 3.85067 21.113 3.74601C21.2248 3.63817 21.3014 3.5113 21.3429 3.35589C21.3844 3.20365 21.3876 3.03556 21.3493 2.85794C21.311 2.68033 21.2375 2.52809 21.1354 2.40757C21.0332 2.28704 20.9087 2.20141 20.7618 2.15066C20.6149 2.09992 20.4585 2.09357 20.2925 2.12846C20.1265 2.16335 19.986 2.2363 19.8742 2.34096C19.7625 2.44563 19.6859 2.57566 19.6412 2.73108C19.5997 2.88332 19.5965 3.05141 19.6348 3.22903C19.6731 3.40664 19.7465 3.55888 19.8487 3.6794C19.9509 3.79993 20.0754 3.88556 20.2222 3.93631C20.3691 3.98705 20.5256 3.9934 20.6916 3.95851H20.6948Z" fill="#081F24"/>
<path d="M24.2549 3.38768L24.2933 3.80634C24.2262 3.8222 24.1592 3.83806 24.0889 3.85075C24.0187 3.86343 23.9484 3.87612 23.8782 3.88246C23.5557 3.91418 23.3163 3.85392 23.1535 3.70485C22.9938 3.55578 22.898 3.31791 22.8661 2.98488L22.7512 1.76696L22.2627 1.81137L22.2212 1.38954L22.7097 1.34513L22.6362 0.558561L23.1311 0.510986L23.2045 1.29756L24.0602 1.21827L24.0378 1.64644L23.2461 1.71939L23.3578 2.90876C23.377 3.12761 23.4376 3.2735 23.5366 3.34962C23.6356 3.42574 23.7792 3.45429 23.974 3.43526C24.073 3.42574 24.1687 3.40989 24.2549 3.38768Z" fill="#081F24"/>
<path d="M26.7197 3.15597L26.9464 3.53023C26.8091 3.64123 26.6527 3.72687 26.4771 3.78713C26.3015 3.84739 26.1195 3.87594 25.9247 3.87594C25.6501 3.87594 25.4107 3.8125 25.2032 3.69198C24.9956 3.57146 24.836 3.4097 24.7243 3.20355C24.6093 2.99739 24.555 2.75951 24.5582 2.48992C24.5614 2.22033 24.6221 1.98563 24.7402 1.77947C24.8584 1.57331 25.0212 1.41473 25.2319 1.30055C25.4394 1.18637 25.6821 1.12928 25.9566 1.13245C26.1418 1.13245 26.3174 1.16417 26.4771 1.22126C26.6367 1.27835 26.7836 1.35447 26.9113 1.45279L26.675 1.8207C26.576 1.74775 26.4643 1.68749 26.3398 1.64309C26.2153 1.59868 26.0907 1.57648 25.9662 1.57648C25.7044 1.57648 25.4905 1.65577 25.3277 1.82704C25.1649 1.99514 25.0818 2.22033 25.0787 2.49626C25.0787 2.7722 25.1553 2.99739 25.3149 3.16866C25.4745 3.3431 25.6853 3.42873 25.9471 3.4319C26.0812 3.4319 26.2184 3.4097 26.3525 3.36213C26.4866 3.31455 26.6111 3.24478 26.7229 3.15914L26.7197 3.15597Z" fill="#081F24"/>
<path d="M29.8612 4.21538L29.3695 4.14561L29.5898 2.6359C29.6218 2.41388 29.5898 2.22992 29.4941 2.0872C29.3983 1.94447 29.2482 1.85884 29.0471 1.82712C28.7949 1.79223 28.5841 1.84298 28.4117 1.97936C28.2393 2.11574 28.134 2.31239 28.0956 2.56295L27.8945 3.92993L27.4028 3.86016L27.9679 0.000244141L28.466 0.0192741L28.217 1.72563C28.3383 1.60511 28.4884 1.5163 28.6671 1.45921C28.8427 1.40212 29.0311 1.38626 29.2259 1.41481C29.5419 1.45921 29.7782 1.59242 29.9283 1.81126C30.0815 2.03011 30.1326 2.30921 30.0847 2.64541L29.8548 4.21538H29.8612Z" fill="#081F24"/>
<path d="M32.3322 4.87498L31.8501 4.69102L33.1783 1.27197L33.6604 1.45593L33.0825 2.94661L35.145 3.73635L35.7229 2.24567L36.205 2.42963L34.8768 5.84868L34.3947 5.66473L34.9821 4.14867L32.9197 3.35893L32.3322 4.87498Z" fill="#081F24"/>
<path d="M36.553 6.86994C36.3167 6.73356 36.1379 6.55912 36.0198 6.35613C35.9017 6.14997 35.8442 5.93113 35.8506 5.69325C35.857 5.45855 35.9272 5.22385 36.0645 4.99232C36.2018 4.76078 36.3742 4.58634 36.5785 4.46582C36.7828 4.34847 37.0063 4.28821 37.2426 4.29138C37.4821 4.29455 37.7183 4.36433 37.9546 4.50388C38.1908 4.64343 38.3696 4.8147 38.4878 5.01769C38.6059 5.22385 38.6634 5.44269 38.6602 5.68057C38.6538 5.91527 38.5835 6.14997 38.4462 6.3815C38.309 6.61304 38.1366 6.78748 37.9322 6.908C37.7279 7.02535 37.5044 7.08561 37.2681 7.08244C37.0287 7.07927 36.7924 7.00949 36.5562 6.86994H36.553ZM36.7733 6.49568C36.9201 6.58132 37.0702 6.62255 37.2266 6.61938C37.3799 6.61938 37.5267 6.5718 37.664 6.48934C37.8013 6.40688 37.9163 6.28635 38.0088 6.12777C38.1014 5.96919 38.1525 5.81061 38.1589 5.65202C38.1653 5.49344 38.1334 5.34754 38.0599 5.21116C37.9865 5.07478 37.8779 4.96377 37.7311 4.87814C37.5842 4.7925 37.4342 4.75127 37.2777 4.75444C37.1245 4.75444 36.9776 4.79884 36.8403 4.88448C36.703 4.96694 36.5881 5.08747 36.4955 5.24605C36.4029 5.40463 36.3518 5.56322 36.3454 5.7218C36.3391 5.88038 36.371 6.02628 36.4444 6.16266C36.5179 6.29904 36.6264 6.41005 36.7733 6.49568Z" fill="#081F24"/>
<path d="M40.3843 9.59465L40.0172 9.287L40.7164 7.4855L39.0498 8.47823L38.6826 8.17057L39.6404 5.55078L40.0555 5.89649L39.286 7.85024L40.975 6.81945L41.3389 7.12393L40.611 8.95398L42.4149 7.86292L42.814 8.19595L40.3843 9.58831V9.59465Z" fill="#081F24"/>
<path d="M43.0825 12.6426L42.3066 11.5706L45.3014 9.42969L46.0772 10.5017C46.4444 11.006 46.5976 11.4913 46.537 11.9575C46.4763 12.4206 46.2081 12.8234 45.7324 13.1627C45.2567 13.5021 44.7874 13.629 44.3276 13.537C43.8647 13.4482 43.4496 13.15 43.0857 12.6426H43.0825ZM45.7133 10.7618L45.2375 10.1084L42.9707 11.7291L43.4464 12.3825C43.7146 12.7504 44.0211 12.9661 44.3691 13.0264C44.7171 13.0866 45.0683 12.9915 45.4259 12.7346C45.7835 12.4808 45.9878 12.1795 46.0389 11.8306C46.09 11.4818 45.9846 11.1265 45.7165 10.7586L45.7133 10.7618Z" fill="#081F24"/>
<path d="M44.953 15.7983C44.8285 15.5541 44.7742 15.3162 44.787 15.0783C44.7997 14.8404 44.87 14.6248 45.0041 14.4313C45.1382 14.2347 45.3234 14.0761 45.566 13.9555C45.8086 13.835 46.0481 13.7811 46.2844 13.7906C46.5206 13.8001 46.7409 13.8731 46.9389 14.0031C47.1368 14.1332 47.2964 14.3235 47.421 14.5645C47.5455 14.8087 47.5998 15.0466 47.587 15.2845C47.5742 15.5223 47.504 15.738 47.3699 15.9315C47.2358 16.1281 47.0506 16.2867 46.808 16.4072C46.5653 16.5278 46.3259 16.5817 46.0896 16.5722C45.8533 16.5627 45.633 16.4897 45.4351 16.3597C45.2371 16.2296 45.0743 16.0393 44.953 15.7983ZM45.3425 15.6016C45.4191 15.7539 45.5245 15.8681 45.6554 15.9505C45.7863 16.0298 45.9332 16.0742 46.0928 16.0774C46.2524 16.0806 46.4153 16.0425 46.5813 15.96C46.7473 15.8776 46.875 15.7729 46.9676 15.6429C47.0602 15.5128 47.1145 15.3733 47.1272 15.2179C47.14 15.0656 47.1081 14.9134 47.0315 14.7611C46.9548 14.6089 46.8495 14.4947 46.7186 14.4123C46.5877 14.333 46.4408 14.2886 46.2812 14.2854C46.1215 14.2822 45.9587 14.3235 45.7927 14.4028C45.6267 14.4852 45.499 14.5899 45.4064 14.7199C45.3138 14.85 45.2595 14.9895 45.2467 15.1449C45.234 15.2972 45.2659 15.4494 45.3425 15.6016Z" fill="#081F24"/>
<path d="M45.978 17.1843L46.3994 17.2573C46.3643 17.4254 46.3547 17.5903 46.3675 17.7552C46.3802 17.9202 46.4122 18.0787 46.4665 18.2342C46.5303 18.4149 46.6037 18.5355 46.6867 18.5989C46.7698 18.6623 46.8623 18.6782 46.9613 18.6433C47.0699 18.6052 47.1273 18.5291 47.1369 18.4118C47.1465 18.2944 47.1369 18.1136 47.1146 17.8662C47.0954 17.695 47.089 17.53 47.0954 17.3715C47.1018 17.2129 47.1369 17.0765 47.204 16.956C47.271 16.8355 47.386 16.7466 47.5488 16.6896C47.7052 16.6356 47.8553 16.6293 47.9958 16.6737C48.1362 16.7181 48.2608 16.8006 48.3693 16.9211C48.4779 17.0416 48.5641 17.1907 48.6247 17.3651C48.6886 17.5491 48.7269 17.7394 48.7333 17.9424C48.7397 18.1453 48.7237 18.323 48.6822 18.4784L48.2608 18.4054C48.2895 18.2595 48.3023 18.1105 48.2991 17.955C48.2927 17.8028 48.2671 17.6569 48.2193 17.5174C48.1682 17.3778 48.1043 17.2731 48.0213 17.2002C47.9415 17.1272 47.8457 17.1114 47.7403 17.1494C47.6318 17.1875 47.5711 17.2668 47.5647 17.3905C47.5584 17.5142 47.5647 17.6918 47.5903 17.9297C47.6094 18.1105 47.6158 18.2786 47.6094 18.4371C47.6031 18.5957 47.5647 18.7321 47.4977 18.8463C47.4307 18.9636 47.3157 19.0493 47.1497 19.1064C46.9134 19.1888 46.6995 19.1635 46.508 19.0334C46.3164 18.9034 46.1663 18.6845 46.0578 18.3801C45.978 18.158 45.9365 17.9392 45.9301 17.7299C45.9237 17.5174 45.9397 17.3366 45.978 17.1812V17.1843Z" fill="#081F24"/>
<path d="M47.6923 21.7293L47.3731 22.0242C47.2326 21.9037 47.1144 21.7547 47.0123 21.577C46.9101 21.3994 46.8399 21.2091 46.7952 21.0061C46.7345 20.7334 46.7377 20.4828 46.8048 20.2545C46.8718 20.0261 46.9931 19.8326 47.1719 19.674C47.3507 19.5155 47.5742 19.4076 47.8456 19.3505C48.1106 19.2934 48.3596 19.2966 48.5831 19.3632C48.8098 19.4298 49.0013 19.5472 49.1578 19.7153C49.3142 19.8834 49.4196 20.0959 49.4739 20.3464C49.5537 20.7175 49.5058 21.0315 49.327 21.2948C49.1482 21.558 48.8609 21.7325 48.465 21.8181L48.1776 21.8815L47.7434 19.9024C47.5295 19.988 47.3762 20.1212 47.2837 20.3052C47.1911 20.4892 47.1719 20.7048 47.2262 20.9522C47.2581 21.1013 47.3156 21.2408 47.3922 21.3677C47.472 21.4978 47.5678 21.6183 47.6859 21.7293H47.6923ZM49.0716 20.4352C49.0237 20.2132 48.9151 20.0451 48.7523 19.9373C48.5895 19.8295 48.3851 19.7851 48.1425 19.8073L48.4713 21.3106L48.4969 21.3043C48.7172 21.2567 48.88 21.1552 48.9854 20.9966C49.0907 20.838 49.1195 20.6509 49.0716 20.4352Z" fill="#081F24"/>
<path d="M47.3156 24.6314L47.29 24.1175L50.9744 23.9304L51 24.4442L47.3156 24.6314Z" fill="#081F24"/>
<path d="M47.7405 26.9561L47.3191 26.9434C47.3095 26.8768 47.3031 26.807 47.2999 26.7372C47.2967 26.6674 47.2935 26.5945 47.2967 26.5247C47.3063 26.2044 47.3925 25.9728 47.5617 25.8333C47.7309 25.6937 47.98 25.6271 48.3152 25.6367L49.5444 25.6715L49.5572 25.1863L49.985 25.199L49.9722 25.6842L50.7672 25.7064L50.7544 26.198L49.9595 26.1758L49.9339 27.029L49.5093 26.9529L49.5316 26.1631L48.3312 26.1283C48.1109 26.1219 47.9544 26.1632 47.8682 26.2488C47.782 26.3376 47.7341 26.4771 47.7309 26.6706C47.7309 26.7689 47.7309 26.8641 47.7437 26.9529L47.7405 26.9561Z" fill="#081F24"/>
<path d="M46.2305 32.4369L46.3678 31.9167L49.3179 31.7518L46.8339 30.1596L46.9712 29.6395L50.8472 29.4175L50.7067 29.9471L47.5842 30.0962L50.116 31.7138L49.9851 32.199L46.9808 32.364L49.618 34.0259L49.4839 34.5334L46.2241 32.4369H46.2305Z" fill="#081F24"/>
<path d="M45.1511 34.7967C45.2692 34.5493 45.4256 34.359 45.6204 34.2227C45.8151 34.0863 46.0322 34.0102 46.2685 33.9943C46.5048 33.9784 46.7474 34.0292 46.9901 34.1434C47.2359 34.2575 47.4243 34.413 47.5616 34.6064C47.6988 34.7999 47.7755 35.0124 47.7946 35.2503C47.8106 35.485 47.7627 35.726 47.6446 35.9734C47.5264 36.2208 47.37 36.4111 47.1752 36.5475C46.9805 36.6839 46.7634 36.76 46.5271 36.7758C46.2909 36.7917 46.0482 36.741 45.8056 36.6268C45.5597 36.5126 45.3713 36.3572 45.2341 36.1637C45.0968 35.9702 45.0202 35.7577 45.001 35.5199C44.9818 35.282 45.0329 35.0409 45.1511 34.7967ZM45.547 34.9839C45.4735 35.1361 45.4448 35.2883 45.4607 35.4437C45.4767 35.5992 45.5342 35.7355 45.63 35.8624C45.7257 35.9893 45.8566 36.0939 46.0227 36.1701C46.1887 36.2493 46.3515 36.2842 46.5111 36.2779C46.6708 36.2715 46.8145 36.2271 46.9454 36.1415C47.0763 36.059 47.1752 35.9385 47.2487 35.7863C47.3221 35.634 47.3508 35.4818 47.3349 35.3264C47.3189 35.1741 47.2614 35.0346 47.1657 34.9077C47.0699 34.7809 46.939 34.6762 46.773 34.6001C46.6069 34.524 46.4441 34.4859 46.2845 34.4922C46.1248 34.4986 45.9812 34.543 45.8503 34.6286C45.7194 34.7111 45.6204 34.8316 45.547 34.9839Z" fill="#081F24"/>
<path d="M44.0591 36.9184L44.3241 36.5029L46.5526 37.9016L46.2972 38.3044L45.8981 38.0666C45.9747 38.2315 46.0067 38.4059 45.9939 38.5962C45.9811 38.7865 45.9237 38.961 45.8183 39.1259C45.7991 39.1576 45.7736 39.1893 45.7449 39.2274C45.7161 39.2654 45.6938 39.294 45.6714 39.313L45.2915 39.0751C45.3298 39.0307 45.3745 38.9737 45.4224 38.8975C45.5757 38.6533 45.6204 38.4091 45.5501 38.1617C45.4799 37.9143 45.3107 37.705 45.0393 37.5369L44.0527 36.9184H44.0591Z" fill="#081F24"/>
<path d="M42.8874 38.6279L43.1971 38.2441L46.2557 40.6895L45.9875 41.105L44.0336 39.5413L44.2028 41.1779L43.8197 41.6505L43.6409 39.8997L41.6519 40.1503L42.0765 39.627L43.8644 39.405L42.8906 38.6247L42.8874 38.6279Z" fill="#081F24"/>
<path d="M40.8728 41.2762C40.809 41.2128 40.7802 41.1367 40.7834 41.0542C40.7866 40.9718 40.8218 40.8956 40.8856 40.8322C40.9527 40.7688 41.0261 40.7371 41.1091 40.7339C41.1921 40.7339 41.2687 40.7656 41.3326 40.829C41.3964 40.8925 41.4252 40.9686 41.422 41.0511C41.4188 41.1335 41.3837 41.2096 41.3198 41.2731C41.2528 41.3365 41.1793 41.3682 41.0963 41.3714C41.0133 41.3714 40.9367 41.3397 40.8728 41.2762ZM41.4954 41.7615L41.8051 41.4634C41.853 41.4951 41.9041 41.5331 41.9552 41.5871C42.0286 41.66 42.0797 41.7361 42.1148 41.8123C42.1499 41.8884 42.1691 41.9835 42.1755 42.1009C42.1819 42.2182 42.1755 42.3768 42.1627 42.5766C42.1499 42.7923 42.1531 42.9604 42.1787 43.0841C42.2042 43.2078 42.2553 43.3093 42.3383 43.3917C42.45 43.5059 42.5746 43.5535 42.715 43.5376C42.8555 43.5218 42.9896 43.4488 43.1205 43.322C43.328 43.119 43.4398 42.8526 43.4557 42.5195L43.8868 42.5861C43.8772 42.7923 43.8293 42.9921 43.7431 43.1824C43.6569 43.3727 43.5388 43.5408 43.3951 43.6804C43.245 43.8263 43.0854 43.9278 42.9194 43.988C42.7533 44.0483 42.5905 44.0578 42.4309 44.0261C42.2712 43.9944 42.1276 43.9087 41.9967 43.7787C41.8817 43.6613 41.8019 43.5154 41.7604 43.341C41.7189 43.1666 41.7061 42.9414 41.7221 42.6654C41.7317 42.5132 41.7381 42.3927 41.7381 42.3007C41.7381 42.2119 41.7349 42.1389 41.7221 42.085C41.7093 42.0311 41.687 41.9804 41.6519 41.9391C41.6167 41.8979 41.572 41.844 41.5114 41.7805L41.4922 41.7615H41.4954Z" fill="#081F24"/>
<path d="M37.3643 42.3133L37.7665 42.0278L41.1764 46.7504L40.7741 47.0359L37.3643 42.3133Z" fill="#081F24"/>
<path d="M32.7859 45.9924L33.284 45.7799L35.2379 47.981L34.9633 45.0567L35.4614 44.8442L38.0315 47.7336L37.5271 47.9493L35.4806 45.6054L35.7615 48.5805L35.2954 48.7803L33.3095 46.5347L33.6224 49.6239L33.1371 49.8333L32.7827 45.9924H32.7859Z" fill="#081F24"/>
<path d="M28.9387 46.9568L29.4081 46.8553L29.5039 47.239C29.5773 47.0805 29.689 46.9409 29.8391 46.8236C29.9891 46.7062 30.1615 46.6237 30.3595 46.5825C30.5989 46.5286 30.8224 46.5413 31.0363 46.6174C31.2503 46.6935 31.4322 46.8172 31.5855 46.998C31.7387 47.1756 31.8441 47.3945 31.9016 47.6514C31.959 47.9083 31.9559 48.1493 31.892 48.3777C31.8281 48.6029 31.7164 48.7932 31.5536 48.9517C31.3907 49.1103 31.1896 49.215 30.9533 49.2657C30.7554 49.3101 30.5638 49.3101 30.3787 49.2657C30.1935 49.2213 30.0306 49.142 29.8966 49.031L29.9732 49.418L29.5039 49.5195L28.9355 46.9631L28.9387 46.9568ZM30.3531 47.0265C30.1871 47.0646 30.0466 47.1344 29.9381 47.2422C29.8263 47.3501 29.7497 47.4801 29.7082 47.6323C29.6667 47.7846 29.6635 47.9527 29.705 48.1303C29.7465 48.3079 29.8167 48.4601 29.9189 48.5807C30.0211 48.7012 30.1456 48.7868 30.2924 48.8376C30.4393 48.8883 30.5958 48.8947 30.7618 48.8566C30.9278 48.8185 31.0683 48.7488 31.1768 48.6409C31.2886 48.5331 31.3652 48.403 31.4067 48.2508C31.4482 48.0986 31.4514 47.9305 31.4099 47.7529C31.3716 47.5752 31.2982 47.423 31.196 47.3025C31.0938 47.182 30.9693 47.0963 30.8224 47.0456C30.6756 46.9948 30.5191 46.9885 30.3531 47.0265Z" fill="#081F24"/>
<path d="M26.793 47.607L26.7515 47.1884C26.8185 47.1725 26.8856 47.1566 26.9558 47.144C27.026 47.1313 27.0963 47.1186 27.1665 47.1122C27.489 47.0805 27.7284 47.1408 27.8913 47.2867C28.0541 47.4326 28.1499 47.6736 28.1818 48.0067L28.2999 49.2246L28.7884 49.177L28.8299 49.5988L28.3414 49.6464L28.4181 50.433L27.9264 50.4805L27.8498 49.694L26.9941 49.7764L27.0165 49.3483L27.8083 49.2721L27.6933 48.0828C27.671 47.8639 27.6135 47.718 27.5145 47.6419C27.4155 47.5658 27.2687 47.5404 27.0771 47.5563C26.9781 47.5658 26.8824 47.5816 26.7962 47.6038L26.793 47.607Z" fill="#081F24"/>
<path d="M24.328 47.8418L24.0981 47.4675C24.2354 47.3565 24.3919 47.2709 24.5643 47.2106C24.7367 47.1503 24.9219 47.1186 25.1166 47.1218C25.3912 47.1218 25.6306 47.1852 25.8382 47.3026C26.0457 47.4199 26.2053 47.5849 26.3203 47.791C26.4352 47.9972 26.4895 48.235 26.4895 48.5046C26.4895 48.7742 26.4256 49.0089 26.3075 49.2151C26.1894 49.4213 26.0265 49.5798 25.819 49.694C25.6115 49.8082 25.3688 49.8653 25.0943 49.8621C24.9091 49.8621 24.7335 49.8304 24.5739 49.7733C24.4142 49.7162 24.2674 49.6401 24.1396 49.5449L24.3759 49.1739C24.4749 49.2468 24.5866 49.3071 24.7143 49.3483C24.8389 49.3927 24.9634 49.4149 25.0879 49.4149C25.3497 49.4149 25.5636 49.3324 25.7264 49.1643C25.8893 48.9931 25.9723 48.7711 25.9755 48.4951C25.9755 48.2192 25.8988 47.994 25.7392 47.8227C25.5796 47.6515 25.3688 47.5627 25.107 47.5595C24.9729 47.5595 24.8357 47.5817 24.7016 47.6293C24.5675 47.6768 24.443 47.7466 24.3312 47.8354L24.328 47.8418Z" fill="#081F24"/>
<path d="M21.1832 46.7886L21.6749 46.8584L21.4578 48.3681C21.4259 48.5901 21.4578 48.774 21.5536 48.9168C21.6493 49.0595 21.7994 49.1451 22.0005 49.1737C22.2496 49.2085 22.4635 49.1578 22.6359 49.0214C22.8083 48.885 22.9137 48.6884 22.9488 48.4378L23.1467 47.0709L23.6384 47.1406L23.0829 51.0037L22.5848 50.9847L22.8306 49.2783C22.7093 49.3988 22.5593 49.4877 22.3837 49.5447C22.2081 49.6018 22.0197 49.6177 21.8217 49.5892C21.5057 49.5447 21.2694 49.4115 21.1162 49.1927C20.9629 48.9739 20.9118 48.6979 20.9597 48.3585L21.1864 46.7886H21.1832Z" fill="#081F24"/>
<path d="M18.7157 46.1351L19.1978 46.319L17.8792 49.7413L17.3971 49.5573L17.9718 48.0666L15.9093 47.2832L15.3346 48.7739L14.8525 48.5899L16.1711 45.1646L16.6532 45.3485L16.069 46.8646L18.1315 47.648L18.7157 46.1319V46.1351Z" fill="#081F24"/>
<path d="M14.4884 44.1496C14.7246 44.286 14.9034 44.4573 15.0215 44.6635C15.1397 44.8696 15.1971 45.0885 15.1939 45.3263C15.1908 45.561 15.1173 45.7957 14.9832 46.0273C14.8459 46.2588 14.6767 46.4364 14.4724 46.5538C14.2681 46.6743 14.0446 46.7314 13.8083 46.7282C13.5721 46.725 13.3326 46.6553 13.0963 46.5189C12.8601 46.3825 12.6813 46.2112 12.5632 46.0051C12.445 45.7989 12.3876 45.5801 12.3908 45.3422C12.3939 45.1075 12.4674 44.8728 12.6015 44.6413C12.7388 44.4097 12.908 44.2321 13.1123 44.1148C13.3166 43.9942 13.5401 43.9371 13.7764 43.9403C14.0158 43.9435 14.2521 44.0133 14.4884 44.1528V44.1496ZM14.2681 44.5239C14.1212 44.4383 13.9711 44.397 13.8147 44.4002C13.6614 44.4034 13.5146 44.4478 13.3805 44.5302C13.2432 44.6127 13.1315 44.7364 13.0357 44.8918C12.9431 45.0504 12.892 45.209 12.8856 45.3676C12.8792 45.5261 12.9112 45.672 12.9846 45.8084C13.058 45.9448 13.1666 46.0558 13.3134 46.1414C13.4603 46.2271 13.6104 46.2683 13.7668 46.2651C13.9233 46.262 14.0669 46.2176 14.2042 46.1351C14.3415 46.0526 14.4532 45.9289 14.549 45.7735C14.6448 45.6181 14.6927 45.4564 14.6991 45.2978C14.7055 45.1392 14.6735 44.9933 14.6001 44.8569C14.5267 44.7205 14.4181 44.6095 14.2713 44.5271L14.2681 44.5239Z" fill="#081F24"/>
<path d="M10.6479 41.4348L11.0151 41.7393L10.3223 43.5408L11.9857 42.5417L12.3528 42.8462L11.3982 45.466L10.9831 45.1235L11.7462 43.1697L10.0605 44.2037L9.69329 43.8992L10.418 42.066L8.61735 43.1634L8.21826 42.8335L10.6447 41.4348H10.6479Z" fill="#081F24"/>
<path d="M7.94646 38.3933L8.72548 39.4622L5.73711 41.6125L4.95809 40.5437C4.59093 40.0394 4.43768 39.5541 4.49515 39.0911C4.55581 38.628 4.8208 38.2252 5.29652 37.8827C5.77223 37.5433 6.23836 37.4164 6.70131 37.5052C7.16425 37.594 7.5793 37.889 7.94646 38.3965V38.3933ZM5.31886 40.2804L5.79458 40.9338L8.05821 39.3067L7.58249 38.6534C7.31431 38.2855 7.00781 38.073 6.6598 38.0127C6.3118 37.9524 5.9606 38.0508 5.60302 38.3045C5.24862 38.5614 5.04429 38.8627 4.99321 39.2084C4.94212 39.5541 5.05068 39.9125 5.31886 40.2804Z" fill="#081F24"/>
<path d="M6.06914 35.2373C6.19366 35.4815 6.24793 35.7194 6.23836 35.9573C6.22558 36.1952 6.15534 36.4108 6.02125 36.6043C5.88716 36.7978 5.70198 36.9595 5.45933 37.08C5.21669 37.2006 4.97724 37.2577 4.74097 37.2481C4.50471 37.2386 4.28442 37.1688 4.08647 37.0356C3.88852 36.9056 3.72569 36.7185 3.60437 36.4743C3.47985 36.23 3.42558 35.9922 3.43516 35.7543C3.44474 35.5164 3.51817 35.3007 3.65226 35.1073C3.78635 34.9138 3.97153 34.752 4.21418 34.6315C4.45682 34.511 4.69628 34.4539 4.93254 34.4634C5.1688 34.4729 5.38909 34.5427 5.58704 34.6759C5.78499 34.806 5.94782 34.9931 6.06914 35.2373ZM5.67963 35.434C5.60301 35.2817 5.49765 35.1675 5.36675 35.0851C5.23584 35.0058 5.08898 34.9614 4.92934 34.9582C4.76971 34.9582 4.60688 34.9963 4.44405 35.0787C4.27803 35.1612 4.15032 35.269 4.05773 35.3959C3.96515 35.5228 3.91406 35.6655 3.90129 35.8209C3.88852 35.9763 3.92045 36.1254 3.99707 36.2776C4.0737 36.4299 4.17906 36.544 4.30996 36.6265C4.44086 36.7058 4.58772 36.7502 4.74736 36.7502C4.907 36.7502 5.06982 36.7121 5.23265 36.6297C5.39867 36.5472 5.52638 36.4394 5.61897 36.3125C5.71156 36.1825 5.76264 36.0429 5.77541 35.8875C5.78818 35.7353 5.75626 35.583 5.67963 35.4308V35.434Z" fill="#081F24"/>
<path d="M5.03815 33.8546L4.61671 33.7848C4.64864 33.6167 4.66141 33.4518 4.64864 33.2869C4.63587 33.1219 4.60394 32.9634 4.54967 32.8111C4.48581 32.6335 4.41238 32.5098 4.32618 32.4464C4.24317 32.3829 4.15058 32.3671 4.0516 32.402C3.94305 32.44 3.88558 32.5162 3.87601 32.6335C3.86643 32.7509 3.87601 32.9316 3.90155 33.179C3.9207 33.3503 3.92709 33.5152 3.9207 33.6738C3.91432 33.8324 3.8792 33.9688 3.81534 34.0893C3.7483 34.2098 3.63655 34.2986 3.47053 34.3557C3.31409 34.4096 3.16403 34.416 3.02355 34.3716C2.88307 34.3272 2.75856 34.2447 2.65001 34.1242C2.54145 34.0037 2.45525 33.8546 2.39459 33.6802C2.33073 33.4962 2.29242 33.3059 2.28604 33.1029C2.27965 32.8999 2.29561 32.7223 2.33393 32.5669L2.75536 32.6399C2.72663 32.7857 2.71386 32.9348 2.72024 33.0902C2.72663 33.2425 2.75217 33.3884 2.80326 33.5279C2.85434 33.6675 2.91819 33.7721 3.0012 33.8451C3.08102 33.9149 3.1768 33.9339 3.28216 33.8958C3.39071 33.8578 3.45138 33.7785 3.45776 33.6548C3.46415 33.5343 3.45776 33.3535 3.43222 33.1156C3.41306 32.9348 3.40668 32.7667 3.41306 32.6081C3.41945 32.4496 3.45776 32.3132 3.52481 32.199C3.59185 32.0816 3.70679 31.996 3.87281 31.9357C4.10907 31.8533 4.32298 31.8755 4.51455 32.0055C4.70611 32.1356 4.85617 32.3544 4.96472 32.6589C5.04454 32.8809 5.08604 33.0966 5.09243 33.3091C5.09881 33.5216 5.08285 33.7024 5.04454 33.8578L5.03815 33.8546Z" fill="#081F24"/>
<path d="M3.31375 29.316L3.63302 29.021C3.7735 29.1415 3.89163 29.2906 3.9938 29.465C4.09596 29.6395 4.1694 29.8329 4.21409 30.0359C4.27476 30.3087 4.27156 30.5593 4.20452 30.7876C4.13747 31.016 4.01615 31.2094 3.84055 31.368C3.66176 31.5266 3.43827 31.6344 3.16689 31.6915C2.90189 31.7486 2.65605 31.7455 2.42937 31.682C2.20269 31.6186 2.01112 31.5012 1.85468 31.3331C1.69824 31.165 1.59288 30.9525 1.53541 30.702C1.4524 30.3309 1.50348 30.0169 1.67908 29.7536C1.85788 29.4904 2.14522 29.316 2.54111 29.2303L2.82846 29.1669L3.26586 31.146C3.47977 31.0604 3.62983 30.924 3.72242 30.7432C3.81501 30.5624 3.83097 30.3436 3.77669 30.0962C3.74477 29.9471 3.6873 29.8076 3.61067 29.6807C3.53085 29.5507 3.43188 29.4301 3.31375 29.3191V29.316ZM1.93769 30.6132C1.98558 30.8352 2.09414 31.0033 2.25696 31.1111C2.41979 31.219 2.62412 31.2634 2.86677 31.238L2.53473 29.7378L2.50919 29.7441C2.28889 29.7917 2.12606 29.8964 2.0207 30.0518C1.91534 30.2104 1.88661 30.3975 1.9345 30.6132H1.93769Z" fill="#081F24"/>
<path d="M3.68439 26.4138L3.71312 26.9276L0.0287344 27.1243L0 26.6105L3.68439 26.4138Z" fill="#081F24"/>
<path d="M3.25344 24.0891L3.67488 24.0986C3.68445 24.1652 3.69084 24.235 3.69722 24.3047C3.70361 24.3745 3.70361 24.4475 3.70361 24.5172C3.69403 24.8376 3.60783 25.0691 3.44181 25.2087C3.27579 25.3482 3.02356 25.4148 2.68833 25.4053L1.45914 25.3736L1.44636 25.862L1.01854 25.8525L1.03131 25.3641L0.236328 25.345L0.249099 24.8534L1.04408 24.8756L1.06643 24.0225L1.49106 24.0954L1.47191 24.8852L2.67236 24.9169C2.89266 24.9232 3.0491 24.882 3.13531 24.7932C3.22151 24.7044 3.2694 24.5648 3.27259 24.3713C3.27259 24.273 3.27259 24.1779 3.25982 24.0891H3.25344Z" fill="#081F24"/>
<path d="M4.7536 18.6053L4.61631 19.1286L1.66625 19.2999L4.15337 20.8857L4.01609 21.409L0.140137 21.6405L0.280616 21.1109L3.39989 20.9523L0.864882 19.3411L0.99259 18.8558L3.99693 18.6846L1.35337 17.0289L1.48746 16.5183L4.75041 18.6084L4.7536 18.6053Z" fill="#081F24"/>
<path d="M5.82646 16.2423C5.70833 16.4897 5.55189 16.68 5.35714 16.8164C5.16238 16.9528 4.94528 17.0289 4.70902 17.0448C4.47275 17.0606 4.23011 17.013 3.98746 16.8957C3.74162 16.7815 3.55006 16.6261 3.41278 16.4358C3.27549 16.2455 3.19567 16.0298 3.17971 15.792C3.16055 15.5573 3.21163 15.313 3.32977 15.0688C3.4479 14.8214 3.60434 14.6311 3.79909 14.4947C3.99385 14.3584 4.21095 14.2822 4.44721 14.2664C4.68347 14.2505 4.92612 14.2981 5.16877 14.4155C5.4146 14.5296 5.60617 14.685 5.74345 14.8753C5.88074 15.0688 5.96056 15.2813 5.97652 15.5192C5.99568 15.7539 5.94459 15.9981 5.82646 16.2423ZM5.43057 16.0552C5.504 15.903 5.53273 15.7507 5.51358 15.5953C5.49761 15.4431 5.44015 15.3035 5.34436 15.1767C5.24858 15.0498 5.11768 14.9483 4.94847 14.869C4.78245 14.7897 4.61962 14.7548 4.45998 14.7612C4.30035 14.7675 4.15668 14.8151 4.02578 14.8976C3.89807 14.9832 3.7959 15.1005 3.72247 15.2528C3.64904 15.405 3.6203 15.5573 3.63946 15.7127C3.65542 15.8649 3.71289 16.0045 3.80867 16.1313C3.90445 16.2582 4.03535 16.3629 4.20137 16.439C4.3674 16.5183 4.53022 16.5532 4.68986 16.5468C4.84949 16.5405 4.99317 16.4929 5.12407 16.4104C5.25497 16.3248 5.35394 16.2074 5.42737 16.0552H5.43057Z" fill="#081F24"/>
<path d="M6.91223 14.1204L6.64723 14.5359L4.41553 13.1436L4.67094 12.7408L5.07323 12.9786C4.9966 12.8137 4.96467 12.6393 4.97425 12.449C4.98702 12.2587 5.04449 12.0842 5.14985 11.9161C5.16901 11.8844 5.19455 11.8527 5.22328 11.8146C5.25202 11.7766 5.27437 11.748 5.29352 11.729L5.67345 11.9669C5.63514 12.0113 5.59044 12.0684 5.54255 12.1445C5.3893 12.3887 5.3478 12.6329 5.41485 12.8803C5.48508 13.1277 5.6543 13.3339 5.92568 13.5051L6.91223 14.1204Z" fill="#081F24"/>
<path d="M8.08075 12.4076L7.77106 12.7914L4.70605 10.3524L4.97424 9.93688L6.93137 11.4973L6.75897 9.86076L7.1389 9.38818L7.32088 11.1389L9.30994 10.882L8.88531 11.4085L7.09739 11.6337L8.07436 12.4108L8.08075 12.4076Z" fill="#081F24"/>
<path d="M9.46289 9.26765L9.1532 9.56895C9.10531 9.53724 9.05422 9.49918 9.00314 9.44843C8.92971 9.37548 8.87543 9.29936 8.84031 9.22324C8.80519 9.14712 8.78604 9.05197 8.77965 8.93462C8.77327 8.81727 8.77965 8.65869 8.79242 8.45887C8.80519 8.2432 8.79881 8.0751 8.77327 7.95141C8.74772 7.82771 8.69345 7.72622 8.61363 7.64376C8.50189 7.52958 8.37737 7.482 8.23689 7.49786C8.09641 7.51372 7.96232 7.58667 7.83142 7.71353C7.62389 7.91652 7.51215 8.18294 7.49938 8.51596L7.06836 8.44936C7.07794 8.2432 7.12264 8.04338 7.21203 7.85309C7.29823 7.66279 7.41317 7.49469 7.56004 7.35513C7.71009 7.20924 7.86973 7.10457 8.03575 7.04748C8.20177 6.98722 8.3646 6.97453 8.52424 7.00942C8.68387 7.04431 8.82754 7.12677 8.95844 7.25681C9.07338 7.37416 9.1532 7.52006 9.1947 7.6945C9.23621 7.86894 9.24898 8.09413 9.23621 8.37007C9.22663 8.52231 9.22025 8.64283 9.22025 8.73481C9.22025 8.82679 9.22344 8.89656 9.23621 8.95048C9.24898 9.0044 9.27133 9.05514 9.30645 9.09638C9.33838 9.14078 9.38627 9.19153 9.44693 9.25496L9.46608 9.27399L9.46289 9.26765ZM10.0887 9.75291C10.1525 9.81634 10.1813 9.89246 10.1781 9.97493C10.1749 10.0574 10.1397 10.1335 10.0759 10.1969C10.012 10.2604 9.93541 10.2921 9.8524 10.2953C9.76939 10.2984 9.69277 10.2635 9.62891 10.2001C9.56506 10.1367 9.53313 10.0606 9.53952 9.9781C9.54271 9.89563 9.57783 9.81952 9.64168 9.75608C9.70554 9.69265 9.78216 9.66093 9.86517 9.65776C9.94818 9.65776 10.0248 9.68631 10.0887 9.75291Z" fill="#081F24"/>
<path d="M13.5944 8.70967L13.1921 8.99829L9.76953 4.28203L10.1718 3.99341L13.5944 8.70967Z" fill="#081F24"/>
<path d="M35.409 23.3531C35.8893 23.6085 36.291 23.9898 36.5712 24.456C36.8514 24.9223 36.9994 25.4561 36.9994 26.0001C36.9994 26.544 36.8514 27.0778 36.5712 27.5441C36.291 28.0104 35.8893 28.3917 35.409 28.6471L22.597 35.6141C20.534 36.7371 18 35.2771 18 32.9681V19.0331C18 16.7231 20.534 15.2641 22.597 16.3851L35.409 23.3531Z" fill="#081F24"/>
</svg>
