<svg width="63" height="60" viewBox="0 0 63 60" fill="none" xmlns="http://www.w3.org/2000/svg">
<path opacity="0.25" d="M13.1926 26.3852C20.4787 26.3852 26.3852 20.4787 26.3852 13.1926C26.3852 5.90652 20.4787 0 13.1926 0C5.90652 0 0 5.90652 0 13.1926C0 20.4787 5.90652 26.3852 13.1926 26.3852Z" fill="#72BF01"/>
<path d="M60.8509 25.7808C60.8509 33.9489 54.2293 40.5705 46.0612 40.5705C37.8931 40.5705 31.2715 33.9489 31.2715 25.7808C31.2715 17.6127 37.8931 10.9911 46.0612 10.9911C54.2293 10.9911 60.8509 17.6127 60.8509 25.7808Z" stroke="#72BF01" stroke-width="4" stroke-linecap="round" stroke-linejoin="round"/>
<path opacity="0.25" d="M28.089 60C32.7156 60 36.4662 56.2494 36.4662 51.6229C36.4662 46.9963 32.7156 43.2458 28.089 43.2458C23.4625 43.2458 19.7119 46.9963 19.7119 51.6229C19.7119 56.2494 23.4625 60 28.089 60Z" fill="#72BF01"/>
</svg>
