<svg width="64" height="64" viewBox="0 0 64 64" fill="none" xmlns="http://www.w3.org/2000/svg">
<path d="M32.0001 0.200684C49.564 0.200684 63.7993 14.436 63.7993 31.9998C63.7993 49.5637 49.564 63.799 32.0001 63.799C14.4362 63.799 0.200934 49.5637 0.200934 32.0109C0.189839 14.4471 14.4251 0.200684 31.989 0.200684H32.0001Z" fill="#389728"/>
<path d="M9.03257 32.011C9.02148 38.8236 14.5248 44.3601 21.3373 44.3823C21.3595 44.3823 21.3817 44.3823 21.3927 44.3823H23.1458V39.7889H21.3927C17.0989 39.7889 13.6149 36.316 13.6149 32.0221C13.6149 27.7283 17.0878 24.2443 21.3817 24.2443H25.6312V48.2657C25.6312 50.7954 27.6727 52.8591 30.2024 52.8591C30.2024 52.8591 30.2135 52.8591 30.2246 52.8591V19.6287H21.3927C14.558 19.6287 9.02148 25.1763 9.02148 32.011H9.03257ZM42.5959 19.6398H40.8428V24.2332H42.5959C46.8898 24.2332 50.3737 27.7061 50.3737 31.9999C50.3737 36.2938 46.9009 39.7778 42.607 39.7778H38.3575V15.7453C38.3575 13.2156 36.316 11.1519 33.7862 11.1519C33.7862 11.1519 33.7751 11.1519 33.764 11.1519V44.3712H42.5959C49.4306 44.3712 54.9672 38.8458 54.9672 32.011C54.9672 25.1763 49.4417 19.6398 42.607 19.6398H42.5848H42.5959Z" fill="#F9F9F9"/>
</svg>
