<svg width="78" height="44" viewBox="0 0 78 44" fill="none" xmlns="http://www.w3.org/2000/svg">
<g clip-path="url(#clip0_65_1089)">
<path d="M47.8021 43.9447C44.1863 43.4595 41.1894 41.1657 40.1721 38.0973C39.3158 35.5226 39.8202 33.5309 41.3717 33.3564C42.0753 33.2756 42.5289 33.4032 42.9655 33.8033C43.4148 34.2118 43.5293 34.514 43.631 35.5268C43.9192 38.4931 46.098 40.4805 49.0568 40.4805C50.125 40.4805 50.7863 40.3358 51.6849 39.906C53.4229 39.0761 54.3427 37.5015 54.241 35.5268C54.1731 34.2076 53.6263 33.199 52.5284 32.3733C51.6722 31.7265 50.4938 31.186 48.2684 30.4157C45.1909 29.3518 43.7921 28.6709 42.4823 27.5942C40.0406 25.5897 39.1166 21.9 40.1932 18.4699C40.651 17.0059 41.2614 16.0015 42.3848 14.861C44.0591 13.163 46.2337 12.2905 48.7897 12.2905C53.4017 12.2948 57.1404 15.1674 57.9839 19.3465C58.1153 19.9977 58.1407 20.4913 58.0984 21.4276C58.0051 23.3597 57.5303 24.7428 56.6571 25.6195C55.6737 26.6068 54.1647 26.4323 53.5755 25.262C53.283 24.679 53.2915 24.33 53.6136 23.5725C54.0926 22.4447 54.2621 21.7893 54.2621 21.0488C54.2621 19.6317 53.7874 18.4443 52.8209 17.4315C52.1088 16.6867 51.3161 16.2356 50.2352 15.959C47.4545 15.244 44.7585 16.6612 43.8769 19.304C43.5632 20.2445 43.5632 21.6659 43.8769 22.5469C44.1693 23.3725 44.7162 24.1428 45.4029 24.7003C46.1786 25.3259 47.8911 26.1557 49.7901 26.8239C52.8548 27.9006 53.8934 28.3857 55.1947 29.356C56.5257 30.3476 57.3311 31.4924 57.8398 33.1224C58.0433 33.7777 58.0772 34.0969 58.0772 35.4162C58.0772 36.7057 58.039 37.0759 57.8483 37.7441C56.9411 40.8805 54.525 43.0808 51.2101 43.7915C50.3073 43.983 48.671 44.0553 47.8063 43.9404L47.8021 43.9447ZM7.52404 30.2582C3.86163 29.6795 1.07668 27.3473 0.224656 24.147C-0.0466333 23.1299 -0.0678278 21.3212 0.178028 20.3126C0.538335 18.8359 1.40307 17.5634 2.2339 17.2868C2.93755 17.0527 3.86587 17.3719 4.32791 18.006C4.68822 18.4997 4.6755 19.087 4.28128 20.0998C3.84468 21.2318 3.75566 21.8362 3.90402 22.7511C4.20075 24.6151 5.51904 26.0536 7.45622 26.6238C8.23618 26.8537 9.71979 26.8409 10.504 26.5941C13.2466 25.7387 14.4716 22.7682 13.1321 20.2147C12.4751 18.9593 10.9787 18.0017 7.93098 16.874C4.67126 15.6653 3.45894 14.9972 2.11944 13.6609C1.07244 12.6182 0.576485 11.7841 0.228895 10.4734C-0.0720667 9.33707 -0.0720667 7.34539 0.228895 6.20485C0.847775 3.86846 2.39073 1.97891 4.56105 0.902215C5.87087 0.251088 7.00266 0 8.58377 0C11.3179 0 13.3652 0.821356 15.1456 2.62579C16.5529 4.05146 17.2099 5.40478 17.4261 7.3156C17.6381 9.17961 16.9471 10.1159 15.4338 10.018C14.4589 9.95415 13.8358 9.37537 13.7256 8.42209C13.5263 6.72405 13.1575 5.83461 12.3013 4.97495C10.6354 3.30245 7.76566 3.00455 5.77338 4.29829C3.73447 5.62182 3.20036 8.64764 4.66702 10.5755C5.43003 11.5798 6.72289 12.3203 9.77914 13.4992C12.1487 14.4142 12.988 14.8099 14.035 15.4951C15.5695 16.4995 16.5741 17.7166 17.0828 19.1933C18.2188 22.4788 17.1803 26.2791 14.5606 28.424C13.7595 29.0794 12.331 29.7944 11.2839 30.0625C10.3429 30.3008 8.43541 30.4029 7.52828 30.2582H7.52404ZM27.1247 30.2455C24.2931 29.8369 21.5548 27.7729 20.3382 25.1301C19.7321 23.8108 19.5328 22.8448 19.5413 21.2701C19.5498 19.6274 19.749 18.738 20.423 17.3378C21.3089 15.4951 22.7205 14.095 24.611 13.197C25.9633 12.5501 26.6923 12.3757 28.2735 12.3118C30.3251 12.231 31.8892 12.597 33.4492 13.5247C34.2206 13.9843 35.4669 15.1206 36.001 15.8526C36.552 16.6059 37.1709 17.9507 37.4592 19.0146C37.722 19.9892 37.7262 20.0317 37.7601 24.3811C37.794 28.2964 37.7813 28.8156 37.6287 29.2156C37.0861 30.637 34.8268 30.7264 34.1274 29.356C33.9493 29.0071 33.9324 28.6496 33.89 24.7939C33.8519 21.3042 33.8179 20.5041 33.6738 19.9551C33.2415 18.2996 32.2326 16.9633 30.927 16.3165C27.7902 14.7674 24.1575 16.6654 23.4835 20.2062C23.3012 21.1723 23.3012 21.5425 23.4877 22.4447C23.6912 23.4193 24.1575 24.3215 24.8188 25.0407C26.1582 26.4919 27.6164 26.943 29.7995 26.5813C30.8507 26.4068 31.2704 26.4877 31.7663 26.9643C32.8218 27.9729 32.4191 29.3731 30.9185 29.9348C29.8546 30.3348 28.5278 30.4412 27.1205 30.237L27.1247 30.2455ZM68.081 30.254C64.8636 29.7816 62.1677 27.7686 60.8579 24.879C59.8617 22.6788 59.8872 19.7849 60.913 17.5549C62.0363 15.1164 64.1218 13.3289 66.7245 12.5757C67.8309 12.2565 70.3827 12.2352 71.5569 12.5331C75.4439 13.5247 77.9661 16.4867 78 20.0998C78.0085 20.9339 77.9788 21.0701 77.7118 21.5638C77.5337 21.8915 77.2455 22.2277 76.9869 22.4064C76.2069 22.9469 75.7025 23.0107 72.269 23.0107C69.2424 23.0107 69.1449 23.0065 68.7083 22.7809C68.1106 22.4745 67.869 22.117 67.8139 21.4574C67.78 21.0148 67.8139 20.8531 68.0089 20.5679C68.3593 20.0544 69.4784 19.7792 71.3661 19.7423C73.7611 19.6955 73.9179 19.6785 74.0621 19.487C74.3715 19.0657 73.9518 17.972 73.1888 17.2059C72.2605 16.2739 70.9041 15.759 69.4035 15.7632C67.8224 15.7675 66.7245 16.2143 65.6521 17.291C63.4521 19.504 63.4055 22.9724 65.5503 25.1684C66.644 26.2876 67.8733 26.7898 69.5222 26.7898C71.1711 26.7898 71.807 26.5685 74.3503 25.1429C76.58 23.8959 78.2967 26.2025 76.4401 27.9474C74.558 29.7135 71.027 30.6881 68.0725 30.2497L68.081 30.254Z" fill="#00D639"/>
</g>
<defs>
<clipPath id="clip0_65_1089">
<rect width="78" height="44" fill="white"/>
</clipPath>
</defs>
</svg>
