<svg width="46" height="48" viewBox="0 0 46 48" fill="none" xmlns="http://www.w3.org/2000/svg">
<path d="M17.54 0C17.2854 0 17.0412 0.101143 16.8612 0.281177C16.6811 0.461212 16.58 0.705392 16.58 0.96V2.88C16.58 3.13461 16.6811 3.37879 16.8612 3.55882C17.0412 3.73886 17.2854 3.84 17.54 3.84H18.98V6.3816C8.59472 7.5768 0.5 16.4203 0.5 27.12C0.5 38.6318 9.86816 48 21.38 48C32.8918 48 42.26 38.6318 42.26 27.12C42.2633 23.1798 41.1445 19.3202 39.0344 15.9926L41.0686 14.3458L41.9749 15.4651C42.0542 15.5631 42.152 15.6446 42.2628 15.7048C42.3735 15.765 42.4951 15.8028 42.6205 15.8161C42.7459 15.8293 42.8726 15.8177 42.9935 15.782C43.1144 15.7462 43.2271 15.687 43.3251 15.6077L44.8179 14.399C45.0155 14.2387 45.1414 14.0065 45.1679 13.7534C45.1943 13.5003 45.1192 13.247 44.959 13.0493L40.1264 7.08C40.0471 6.98197 39.9493 6.90053 39.8385 6.84031C39.7277 6.78009 39.6062 6.74229 39.4808 6.72905C39.3554 6.71581 39.2287 6.7274 39.1078 6.76316C38.9869 6.79891 38.8742 6.85813 38.7762 6.93744L37.2834 8.14608C37.0857 8.30641 36.9599 8.53865 36.9334 8.79175C36.907 9.04485 36.9821 9.2981 37.1422 9.49584L38.049 10.6152L36.0234 12.2539C32.7896 9.06768 28.5238 6.9288 23.78 6.38256V3.84H25.22C25.4746 3.84 25.7188 3.73886 25.8988 3.55882C26.0789 3.37879 26.18 3.13461 26.18 2.88V0.96C26.18 0.705392 26.0789 0.461212 25.8988 0.281177C25.7188 0.101143 25.4746 0 25.22 0L17.54 0ZM21.38 9.6C31.076 9.6 38.9 17.424 38.9 27.12C38.9 36.816 31.076 44.64 21.38 44.64C11.684 44.64 3.86 36.816 3.86 27.12C3.86 17.424 11.684 9.6 21.38 9.6Z" fill="#72BF01"/>
<path d="M35.3002 27.1199C35.3002 30.2854 34.2251 33.1997 32.4201 35.5176C27.3801 31.6799 24.7401 29.5199 21.6201 27.1199C21.6201 22.319 21.6202 17.2782 21.6202 13.4399C29.1754 13.4399 35.3002 19.5647 35.3002 27.1199Z" fill="#EDF4D9"/>
</svg>
