<svg width="58" height="58" viewBox="0 0 58 58" fill="none" xmlns="http://www.w3.org/2000/svg">
<path opacity="0.5" d="M14.8578 14.8579C7.04707 22.6686 7.04707 35.3314 14.8578 43.1421C22.6685 50.9528 35.3313 50.9528 43.142 43.1421C50.9527 35.3314 50.9527 22.6686 43.142 14.8579C35.3313 7.04716 22.6685 7.04716 14.8578 14.8579Z" fill="#081F24"/>
<path fill-rule="evenodd" clip-rule="evenodd" d="M28.9999 55.955C28.6024 55.9548 28.2212 55.7968 27.9402 55.5157C27.6591 55.2346 27.5011 54.8535 27.5008 54.456L27.5008 32.6205L22.503 37.6183C22.2217 37.8996 21.8402 38.0577 21.4423 38.0577C21.0445 38.0577 20.663 37.8996 20.3817 37.6183C20.1004 37.337 19.9423 36.9555 19.9423 36.5577C19.9423 36.1598 20.1004 35.7783 20.3817 35.497L27.9392 27.9395C28.2205 27.6581 28.6021 27.5001 28.9999 27.5001C29.3977 27.5001 29.7792 27.6581 30.0605 27.9395L37.6181 35.497C37.8994 35.7783 38.0574 36.1598 38.0574 36.5577C38.0574 36.9555 37.8994 37.337 37.6181 37.6183C37.3368 37.8996 36.9553 38.0577 36.5574 38.0577C36.1596 38.0577 35.7781 37.8996 35.4968 37.6183L30.5004 32.6219L30.5004 54.4574C30.5001 54.8549 30.3421 55.236 30.061 55.5171C29.78 55.7982 29.3974 55.9548 28.9999 55.955Z" fill="#081F24"/>
</svg>
