<svg width="65" height="64" viewBox="0 0 65 64" fill="none" xmlns="http://www.w3.org/2000/svg">
<path d="M32.3627 63.799C49.9235 63.799 64.1563 49.5662 64.1563 32.0054C64.1563 14.4446 49.9346 0.200684 32.3627 0.200684C14.7908 0.200684 0.569092 14.4335 0.569092 31.9943C0.569092 49.5551 14.8019 63.7879 32.3627 63.7879" fill="#1FC0E7"/>
<path d="M16.0665 31.9943L21.4801 26.5585C21.6576 26.381 21.7574 26.137 21.7574 25.8818C21.7574 25.3493 21.3248 24.9056 20.7812 24.9056C20.515 24.9056 20.2709 25.0054 20.0934 25.194L14.6798 30.6076L9.24408 25.1829C9.0555 25.0054 8.82254 24.9056 8.55629 24.9056C8.02381 24.9056 7.58008 25.3382 7.58008 25.8818C7.58008 26.1481 7.67992 26.3921 7.86851 26.5696L13.2821 31.9943L7.86851 37.4189C7.67992 37.6075 7.58008 37.8516 7.58008 38.1178C7.58008 38.6503 8.01272 39.094 8.55629 39.094C8.81144 39.094 9.0555 38.9942 9.24408 38.8167L14.6687 33.392L20.0712 38.8056C20.2598 39.0053 20.5039 39.1051 20.7701 39.1051C21.3026 39.1051 21.7352 38.6725 21.7352 38.1289C21.7352 37.8738 21.6354 37.6297 21.4579 37.4411L16.0443 32.0054L16.0665 31.9943ZM48.2595 31.9943C48.2595 32.9705 49.0471 33.7581 50.0233 33.7581C50.9996 33.7581 51.7872 32.9705 51.7872 31.9943C51.7872 31.018 50.9996 30.2304 50.0233 30.2304C49.0471 30.2304 48.2595 31.018 48.2595 31.9943ZM44.9204 31.9943C44.9204 29.1765 47.2056 26.8802 50.0233 26.8802C52.8411 26.8802 55.1263 29.1765 55.1263 31.9943C55.1263 34.812 52.83 37.1083 50.0233 37.1083C47.2167 37.1083 44.9204 34.812 44.9204 31.9943ZM42.9125 31.9943C42.9125 35.9213 46.1074 39.1273 50.0344 39.1273C53.9615 39.1273 57.1564 35.9324 57.1564 32.0054C57.1564 28.0783 53.9615 24.8723 50.0344 24.8723C46.1074 24.8723 42.9125 28.0672 42.9125 32.0054V31.9943ZM42.4133 24.9943H42.1138C41.2152 24.9943 40.3499 25.2717 39.6288 25.8374C39.529 25.4048 39.1407 25.072 38.6748 25.072C38.1423 25.072 37.7097 25.5046 37.7097 26.0371V38.0402C37.7097 38.5726 38.1534 39.0053 38.6859 39.0053C39.2184 39.0053 39.651 38.5726 39.6621 38.0402V30.652C39.6621 28.1892 39.884 27.2019 41.9917 26.9357C42.1914 26.9135 42.4022 26.9135 42.4022 26.9135C42.979 26.8913 43.3895 26.4919 43.3895 25.9595C43.3895 25.427 42.9569 24.9832 42.4133 24.9832V24.9943ZM23.7764 30.8295C23.7764 30.8295 23.7764 30.774 23.7764 30.7518C24.3422 28.522 26.3612 26.8691 28.7573 26.8691C31.1535 26.8691 33.228 28.5553 33.7604 30.8295H23.7653H23.7764ZM35.7462 30.6409C35.3246 28.6552 34.2486 27.0244 32.5956 25.9817C30.1773 24.4508 26.9935 24.5284 24.6639 26.1924C22.7669 27.5458 21.6687 29.7645 21.6687 32.0386C21.6687 32.6155 21.7352 33.1923 21.8794 33.7581C22.6005 36.5869 25.03 38.7279 27.9142 39.0829C28.7684 39.1828 29.6115 39.1384 30.4768 38.9165C31.2201 38.7279 31.9411 38.4284 32.6067 38.0069C33.2945 37.5631 33.8714 36.9752 34.4261 36.2763C34.4261 36.2652 34.4482 36.2541 34.4593 36.243C34.8476 35.766 34.7699 35.0782 34.3484 34.7454C33.9934 34.4681 33.3833 34.3572 32.9174 34.9673C32.8175 35.1115 32.7066 35.2668 32.5735 35.411C32.1963 35.8326 31.7304 36.2319 31.1646 36.5425C30.4546 36.9197 29.6337 37.1416 28.7795 37.1416C25.9507 37.1083 24.442 35.1337 23.9095 33.7248C23.8208 33.4586 23.7431 33.1923 23.6988 32.9039V32.7597H33.8159C35.2026 32.7264 35.9458 31.7502 35.7462 30.6298V30.6409Z" fill="#F9F9F9"/>
</svg>
