<svg width="77" height="33" viewBox="0 0 77 33" fill="none" xmlns="http://www.w3.org/2000/svg">
<g clip-path="url(#clip0_65_1082)">
<path d="M34.3822 26.2379C33.795 26.2379 33.1999 26.1175 32.6289 25.8689L20.4282 20.4464C18.2487 19.4838 17.2594 16.917 18.2326 14.7432L23.6694 2.57475C24.6345 0.400953 27.2081 -0.585678 29.3877 0.38491L41.5883 5.80737C43.7679 6.76994 44.7571 9.33678 43.784 11.5106L38.3472 23.679C37.6233 25.2913 36.0389 26.2459 34.3822 26.2459V26.2379ZM33.6422 23.5828C34.5671 23.9919 35.6448 23.5828 36.0631 22.6603L41.4999 10.4919C41.91 9.5694 41.4999 8.49454 40.575 8.07742L28.3663 2.65496C27.4414 2.24587 26.3637 2.65496 25.9454 3.57742L20.5086 15.7459C20.0985 16.6683 20.5086 17.7432 21.4335 18.1603L33.6422 23.5828Z" fill="#089949"/>
<path d="M72.6649 26.2459H59.3062C56.9175 26.2459 54.9712 24.3048 54.9712 21.9224V8.59086C54.9712 6.20851 56.9175 4.26733 59.3062 4.26733H72.6649C75.0536 4.26733 76.9999 6.20851 76.9999 8.59086V21.9144C76.9999 24.2967 75.0536 26.2379 72.6649 26.2379V26.2459ZM59.3062 6.77001C58.3008 6.77001 57.4724 7.58819 57.4724 8.59889V21.9224C57.4724 22.9251 58.2928 23.7513 59.3062 23.7513H72.6649C73.6703 23.7513 74.4987 22.9331 74.4987 21.9224V8.59086C74.4987 7.58819 73.6783 6.76199 72.6649 6.76199H59.3062V6.77001Z" fill="#F9B21D"/>
<path d="M22.6239 11.0375L20.8223 15.0562C20.7982 15.1044 20.7741 15.1365 20.7499 15.1766L21.4496 19.5001C21.6105 20.4947 20.9349 21.4333 19.9376 21.5937L6.7397 23.7274C6.25714 23.7996 5.77459 23.6873 5.37245 23.4065C4.97032 23.1258 4.71296 22.7006 4.64058 22.2193L2.51733 9.04822C2.44494 8.56694 2.55754 8.08566 2.83903 7.68459C3.12052 7.28352 3.54678 7.02683 4.02934 6.95464L17.2273 4.82095C17.3238 4.80491 17.4283 4.79689 17.5168 4.79689C18.3934 4.79689 19.1816 5.4386 19.3264 6.33699L20.0341 10.6846L21.892 6.52149L21.7955 5.93592C21.4175 3.58566 19.1897 1.98138 16.8332 2.35838L3.63525 4.5001C2.50124 4.67657 1.49591 5.29421 0.820334 6.22469C0.136712 7.1632 -0.128695 8.30223 0.0562857 9.44929L2.19562 22.6124C2.3806 23.7514 2.99988 24.7461 3.93283 25.4279C4.67275 25.9653 5.54939 26.2381 6.45821 26.2381C6.6834 26.2381 6.92468 26.222 7.15792 26.1819L20.3558 24.0482C22.7123 23.6712 24.3209 21.4493 23.9429 19.099L22.6319 11.0375H22.6239Z" fill="#E42527"/>
<path d="M38.4518 17.3182L40.3901 12.9867L39.8432 8.95994C39.7708 8.47865 39.9075 8.00539 40.2051 7.61234C40.5027 7.2193 40.9289 6.97063 41.4195 6.91448L54.6577 5.11769C54.7381 5.11769 54.8265 5.10165 54.907 5.10165C55.3011 5.10165 55.6871 5.22999 56.0169 5.47063C56.0812 5.51876 56.1295 5.56689 56.1857 5.61502C56.7729 4.99737 57.545 4.5562 58.4055 4.36368C58.1642 4.02678 57.8747 3.72999 57.5289 3.47331C56.604 2.77545 55.47 2.47865 54.3279 2.63106L41.0737 4.42785C39.9316 4.58026 38.9102 5.17384 38.2105 6.0963C37.5108 7.01876 37.2132 8.14978 37.366 9.28882L38.4679 17.3102L38.4518 17.3182Z" fill="#226DB4"/>
<path d="M60.9792 19.5481L59.242 6.77002C58.2688 6.80211 57.4806 7.60424 57.4806 8.59088V12.3449L58.5101 19.893C58.5825 20.3743 58.4457 20.8476 58.1482 21.2406C57.8506 21.6337 57.4243 21.8823 56.9337 21.9385L43.6956 23.7353C43.213 23.8075 42.7385 23.6711 42.3444 23.3743C41.9503 23.0775 41.701 22.6524 41.6447 22.1631L41.0335 17.6791L39.0952 22.0107L39.1676 22.5C39.3204 23.639 39.9156 24.6577 40.8405 25.3556C41.6045 25.9331 42.5133 26.2379 43.4543 26.2379C43.6554 26.2379 43.8484 26.2219 44.0495 26.1978L57.2715 24.4171C58.4136 24.2647 59.435 23.6711 60.1347 22.7486C60.8344 21.8262 61.132 20.6952 60.9792 19.5561V19.5481Z" fill="#226DB4"/>
<path d="M49.4298 30.9945C49.4298 29.8555 50.2663 29.0293 51.4163 29.0293C52.5664 29.0293 53.4029 29.8395 53.4029 31.0026C53.4029 32.1657 52.5906 32.9919 51.4083 32.9919C50.226 32.9919 49.4379 32.1817 49.4379 30.9945H49.4298ZM52.478 31.0106C52.478 30.3207 52.1402 29.7272 51.3842 29.7272C50.6282 29.7272 50.3306 30.3448 50.3306 31.0427C50.3306 31.7084 50.6925 32.31 51.4244 32.31C52.1804 32.31 52.478 31.6523 52.478 31.0106ZM40.969 29.0935H41.532C41.6124 29.0935 41.6848 29.1657 41.6848 29.2459V30.6576H43.2853V29.2459C43.2853 29.1657 43.3576 29.0935 43.4381 29.0935H44.0011C44.0815 29.0935 44.1539 29.1657 44.1539 29.2459V32.7833C44.1539 32.8635 44.0815 32.9357 44.0011 32.9357H43.4461C43.3657 32.9357 43.2933 32.8635 43.2933 32.7833V31.3555H41.6928V32.7833C41.6928 32.8635 41.6204 32.9357 41.54 32.9357H40.977C40.8966 32.9357 40.8242 32.8635 40.8242 32.7833V29.2459C40.8242 29.1657 40.8886 29.0935 40.969 29.0935ZM31.5833 30.9945C31.5833 29.8555 32.4197 29.0293 33.5698 29.0293C34.7199 29.0293 35.5563 29.8395 35.5563 31.0026C35.5563 32.1657 34.744 32.9919 33.5617 32.9919C32.3795 32.9919 31.5913 32.1817 31.5913 30.9945H31.5833ZM34.6394 31.0106C34.6394 30.3207 34.3017 29.7272 33.5457 29.7272C32.7896 29.7272 32.4921 30.3448 32.4921 31.0427C32.4921 31.7084 32.854 32.31 33.5859 32.31C34.3419 32.31 34.6394 31.6523 34.6394 31.0106ZM23.6211 32.5587L25.5111 29.7753H23.9589C23.8784 29.7753 23.806 29.7031 23.806 29.6229V29.2539C23.806 29.1737 23.8784 29.1015 23.9589 29.1015H26.5164C26.5968 29.1015 26.6692 29.1737 26.6692 29.2539V29.3983C26.6692 29.3983 26.6692 29.4625 26.6451 29.4785L24.7953 32.2619H26.4601C26.5405 32.2619 26.6129 32.3341 26.6129 32.4143V32.7833C26.6129 32.8635 26.5405 32.9357 26.4601 32.9357H23.7578C23.6774 32.9357 23.605 32.8635 23.605 32.7833V32.6469C23.605 32.6469 23.605 32.5748 23.6291 32.5587H23.6211Z" fill="#F9F9F9"/>
</g>
<defs>
<clipPath id="clip0_65_1082">
<rect width="77" height="33" fill="white"/>
</clipPath>
</defs>
</svg>
